<?xml version="1.0" encoding="UTF-8"?> <svg xmlns="http://www.w3.org/2000/svg" xmlns:xlink="http://www.w3.org/1999/xlink" width="500" zoomAndPan="magnify" viewBox="0 0 375 374.999991" height="500" preserveAspectRatio="xMidYMid meet" version="1.0"><defs><g></g><clipPath id="id1"><path d="M 152 48 L 364 48 L 364 209 L 152 209 Z M 152 48 " clip-rule="nonzero"></path></clipPath><clipPath id="id2"><path d="M 122.226562 163.84375 L 333.828125 24.253906 L 365.21875 71.832031 L 153.613281 211.425781 Z M 122.226562 163.84375 " clip-rule="nonzero"></path></clipPath><clipPath id="id3"><path d="M 122.226562 163.84375 L 333.828125 24.253906 L 365.21875 71.832031 L 153.613281 211.425781 Z M 122.226562 163.84375 " clip-rule="nonzero"></path></clipPath><clipPath id="id4"><path d="M 122.226562 163.84375 L 333.828125 24.253906 L 365.21875 71.832031 L 153.613281 211.425781 Z M 122.226562 163.84375 " clip-rule="nonzero"></path></clipPath></defs><g clip-path="url(#id1)"><g clip-path="url(#id2)"><g clip-path="url(#id3)"><g clip-path="url(#id4)"><path fill="#010101" d="M 363.660156 69.476562 L 347.289062 75.054688 L 330.863281 80.621094 L 341.625 70.449219 C 334.296875 70.699219 327 70.925781 319.691406 71.210938 C 310.90625 71.542969 302.042969 71.976562 293.421875 73.808594 C 284.4375 75.683594 275.867188 78.996094 267.453125 82.546875 C 258.949219 86.109375 250.511719 89.769531 242.445312 94.214844 C 227.429688 102.511719 214.117188 113.390625 202.410156 125.746094 C 191.578125 137.136719 182.214844 149.800781 174.6875 163.550781 C 167.09375 177.339844 161.355469 191.957031 156.902344 207.042969 C 156.078125 209.777344 152.035156 209.03125 152.507812 206.132812 C 152.855469 204.148438 153.199219 202.164062 153.601562 200.191406 C 155.253906 192.222656 158.011719 184.453125 161.097656 176.953125 C 164.167969 169.511719 167.746094 162.324219 171.832031 155.382812 C 180.105469 141.4375 190.167969 128.507812 201.710938 117.085938 C 214.535156 104.433594 229.019531 93.414062 245.128906 85.371094 C 253.691406 81.089844 262.535156 77.304688 271.445312 73.769531 C 280.164062 70.308594 289.101562 67.632812 298.421875 66.265625 C 307.378906 64.941406 316.46875 64.703125 325.511719 64.394531 C 331.691406 64.171875 337.871094 63.949219 344.039062 63.78125 L 335.84375 48.847656 L 349.730469 59.199219 L 355.644531 63.59375 C 356.386719 63.832031 357.050781 64.324219 357.476562 64.96875 Z M 363.660156 69.476562 " fill-opacity="1" fill-rule="nonzero"></path></g></g></g></g><path fill="#ffed00" d="M 25.042969 248.238281 L 255.785156 215.769531 C 261.6875 214.9375 267.679688 216.488281 272.445312 220.078125 C 277.207031 223.664062 280.347656 229 281.179688 234.90625 L 287.449219 279.445312 C 288.28125 285.355469 286.730469 291.347656 283.144531 296.113281 C 279.554688 300.875 274.222656 304.019531 268.320312 304.851562 L 37.578125 337.320312 C 25.28125 339.050781 13.910156 330.480469 12.179688 318.183594 L 5.914062 273.640625 C 4.183594 261.34375 12.746094 249.96875 25.042969 248.238281 " fill-opacity="1" fill-rule="nonzero"></path><g fill="#000000" fill-opacity="1"><g transform="translate(34.981849, 309.150453)"><g><path d="M 15.207031 -41.464844 C 15.574219 -43.867188 15.695312 -45.53125 15.671875 -46.527344 C 15.601562 -47.457031 15.304688 -47.882812 14.785156 -47.8125 L 14.726562 -47.804688 L 14.554688 -47.777344 C 14.109375 -47.597656 13.292969 -45.898438 12.097656 -42.671875 C 10.90625 -39.449219 9.6875 -35.574219 8.4375 -31.105469 C 7.722656 -28.65625 7.011719 -26.203125 6.371094 -23.644531 C 5.675781 -21.078125 5.085938 -18.585938 4.542969 -16.15625 C 4.476562 -15.796875 4.1875 -15.34375 3.675781 -14.800781 C 3.175781 -14.203125 2.597656 -13.707031 2.011719 -13.273438 C 1.375 -12.773438 0.742188 -12.273438 0.113281 -11.714844 C -0.5625 -11.089844 -1.023438 -10.613281 -1.328125 -10.277344 C -1.824219 -9.617188 -2.171875 -9.15625 -2.425781 -8.886719 C -1.125 -9.246094 -0.105469 -9.507812 0.570312 -9.71875 C 1.875 -10.078125 2.835938 -10.332031 3.511719 -10.546875 C 3.503906 -9.78125 3.46875 -9.1875 3.515625 -8.839844 C 3.464844 -8.363281 3.457031 -7.597656 3.421875 -6.59375 C 3.335938 -5.523438 3.292969 -4.578125 3.308594 -3.640625 C 3.207031 -2.683594 3.238281 -1.632812 3.277344 -0.519531 C 3.324219 0.648438 3.386719 1.523438 3.476562 2.15625 C 3.625 3.191406 3.761719 3.761719 3.894531 3.859375 C 3.984375 4.082031 4.140625 3.945312 4.4375 3.550781 C 4.683594 3.21875 5.148438 1.921875 5.761719 -0.398438 C 6.386719 -2.660156 7.457031 -6.75 8.972656 -12.667969 C 9.042969 -13.027344 9.386719 -13.488281 9.890625 -14.089844 C 10.394531 -14.6875 11.070312 -15.3125 11.796875 -16.003906 C 12.894531 -16.980469 14.054688 -17.90625 15.226562 -18.777344 C 16.339844 -19.640625 17.105469 -20.042969 17.527344 -19.984375 C 18.019531 -19.816406 18.773438 -19.042969 19.792969 -17.65625 C 20.828125 -16.15625 22.207031 -13.882812 23.9375 -10.773438 C 25.699219 -7.4375 27.234375 -4.890625 28.53125 -3.191406 C 29.710938 -1.476562 31.027344 -0.0742188 32.398438 0.90625 C 33.261719 1.609375 33.835938 1.941406 34.183594 1.890625 C 34.296875 1.875 34.355469 1.867188 34.398438 1.742188 C 34.578125 1.363281 34.21875 0.476562 33.414062 -1.058594 C 33.046875 -1.59375 32.496094 -2.574219 31.816406 -4.066406 C 31.027344 -5.484375 30.347656 -6.972656 29.660156 -8.523438 C 28.167969 -11.605469 26.890625 -14.011719 25.816406 -15.800781 C 24.75 -17.53125 23.535156 -19.066406 22.21875 -20.46875 C 21.675781 -20.976562 21.257812 -21.449219 20.953125 -21.933594 C 20.542969 -22.347656 20.378906 -22.675781 20.363281 -22.792969 C 20.347656 -22.90625 20.695312 -23.367188 21.460938 -24.179688 C 22.230469 -24.996094 23.152344 -25.945312 24.234375 -27.039062 C 29.238281 -31.976562 32.683594 -36.339844 34.609375 -40.195312 C 35.707031 -42.410156 36.15625 -44.234375 35.960938 -45.617188 C 35.824219 -46.597656 35.304688 -47.347656 34.46875 -47.878906 C 33.046875 -48.792969 30.953125 -48.617188 28.25 -47.355469 C 25.5 -46.027344 22.457031 -43.835938 19.140625 -40.664062 C 18.003906 -39.566406 17.0625 -38.726562 16.222656 -38.019531 C 15.382812 -37.316406 14.902344 -36.953125 14.828125 -37.0625 C 14.714844 -37.042969 14.707031 -37.515625 14.816406 -38.410156 C 14.875 -39.242188 15.023438 -40.261719 15.207031 -41.464844 Z M 20.832031 -38.671875 C 22.8125 -40.476562 24.710938 -42.035156 26.597656 -43.242188 C 28.425781 -44.441406 29.96875 -45.1875 31.105469 -45.464844 L 31.390625 -45.503906 C 31.738281 -45.554688 32.09375 -45.542969 32.398438 -45.46875 C 32.652344 -45.328125 32.863281 -45.066406 32.972656 -44.726562 C 33.125 -43.632812 32 -41.59375 29.664062 -38.5625 C 27.273438 -35.519531 24.113281 -32.078125 20.128906 -28.226562 C 19.046875 -27.132812 18.066406 -26.171875 17.167969 -25.457031 C 16.335938 -24.695312 15.796875 -24.324219 15.566406 -24.292969 L 15.511719 -24.285156 C 14.019531 -24.425781 13.023438 -24.40625 12.480469 -24.09375 C 11.9375 -23.78125 11.589844 -23.730469 11.542969 -24.078125 L 11.535156 -24.136719 C 11.492188 -24.425781 11.542969 -24.902344 11.742188 -25.574219 C 11.949219 -26.191406 12.105469 -26.742188 12.222656 -27.171875 C 12.664062 -28.644531 13.652344 -30.371094 15.132812 -32.402344 C 16.617188 -34.375 18.5 -36.460938 20.832031 -38.671875 Z M 20.832031 -38.671875 "></path></g></g></g><g fill="#000000" fill-opacity="1"><g transform="translate(71.580162, 304.000386)"><g><path d="M 10.042969 -20.515625 C 10.753906 -21.734375 10.847656 -22.746094 10.257812 -23.601562 C 9.683594 -24.34375 8.6875 -24.734375 7.402344 -24.671875 L 7 -24.613281 L 6.421875 -24.535156 C 6.085938 -24.425781 5.746094 -24.320312 5.410156 -24.214844 C 3.738281 -23.566406 2.121094 -22.515625 0.6875 -21.023438 C -0.808594 -19.519531 -1.929688 -17.890625 -2.699219 -16.253906 C -3.160156 -15.367188 -3.453125 -14.503906 -3.570312 -13.664062 C -3.703125 -12.941406 -3.734375 -12.347656 -3.65625 -11.769531 L -3.597656 -11.367188 C -3.34375 -10.402344 -2.871094 -9.53125 -2.0625 -8.820312 C -1.367188 -8.035156 -0.460938 -7.457031 0.640625 -7.144531 C 1.816406 -6.722656 3.480469 -6.601562 5.570312 -6.78125 L 6.261719 -6.875 C 8.105469 -7.136719 10.140625 -7.714844 12.242188 -8.660156 C 13.347656 -9.167969 14.558594 -9.75 15.800781 -10.511719 C 16.988281 -11.265625 18.234375 -12.03125 19.40625 -12.898438 C 21.546875 -14.375 23.386719 -15.929688 24.929688 -17.496094 C 26.480469 -19.007812 27.214844 -20.054688 27.183594 -20.695312 L 27.167969 -20.808594 C 27.152344 -20.925781 27.070312 -21.089844 27.050781 -21.207031 C 26.980469 -21.3125 26.90625 -21.421875 26.90625 -21.421875 C 26.789062 -21.402344 25.917969 -20.929688 24.285156 -19.992188 C 22.59375 -19.050781 20.640625 -17.894531 18.433594 -16.464844 C 13.859375 -13.472656 10.238281 -11.609375 7.503906 -10.988281 C 4.78125 -10.3125 2.492188 -10.285156 0.691406 -10.972656 C -0.0664062 -11.335938 -0.492188 -11.863281 -0.648438 -12.546875 C -0.851562 -13.164062 -0.734375 -14.003906 -0.296875 -15.066406 C -0.132812 -15.558594 0.164062 -15.953125 0.59375 -16.25 C 0.972656 -16.476562 1.648438 -16.691406 2.621094 -16.886719 C 4.332031 -17.246094 5.90625 -17.761719 7.339844 -18.433594 C 8.714844 -19.097656 9.625 -19.753906 10.042969 -20.515625 Z M 4.628906 -20.988281 C 5.222656 -21.367188 5.71875 -21.613281 6.171875 -21.734375 C 6.515625 -21.785156 6.738281 -21.875 6.96875 -21.90625 L 7.140625 -21.929688 C 7.324219 -21.898438 7.445312 -21.855469 7.460938 -21.742188 C 7.480469 -21.625 7.4375 -21.503906 7.347656 -21.3125 C 7.058594 -20.859375 6.808594 -20.53125 6.488281 -20.308594 C 5.523438 -19.644531 4.699219 -19.234375 4.132812 -19.097656 C 3.621094 -18.964844 3.273438 -18.917969 3.042969 -18.886719 L 2.871094 -18.859375 C 2.699219 -18.835938 2.632812 -18.886719 2.617188 -19 C 2.601562 -19.117188 2.699219 -19.25 2.953125 -19.519531 C 3.359375 -19.988281 3.9375 -20.480469 4.628906 -20.988281 Z M 4.628906 -20.988281 "></path></g></g></g><g fill="#000000" fill-opacity="1"><g transform="translate(99.936651, 300.010097)"><g><path d="M 17.265625 -48.570312 C 17.425781 -49.945312 17.285156 -50.925781 16.902344 -51.578125 C 16.464844 -52.164062 15.726562 -52.410156 14.6875 -52.265625 C 14.054688 -52.175781 13.402344 -51.789062 12.675781 -51.101562 C 11.902344 -50.34375 11.101562 -49.351562 10.265625 -48.175781 C 8.707031 -45.898438 7.019531 -42.839844 5.269531 -39.007812 C 3.457031 -35.167969 1.769531 -30.875 0.144531 -26.117188 C -2.023438 -19.816406 -3.269531 -14.882812 -3.648438 -11.300781 C -3.839844 -9.746094 -3.828125 -8.394531 -3.679688 -7.359375 C -3.46875 -5.859375 -2.960938 -4.757812 -2.171875 -4.160156 C -1.441406 -3.558594 -0.40625 -3.292969 0.863281 -3.472656 L 1.035156 -3.496094 C 2.1875 -3.660156 3.472656 -4.132812 4.769531 -4.960938 C 5.3125 -5.273438 6.210938 -5.988281 7.589844 -7.0625 C 8.914062 -8.074219 10.285156 -9.207031 11.652344 -10.339844 C 13.023438 -11.472656 14.605469 -12.753906 16.402344 -14.183594 C 18.199219 -15.609375 19.742188 -16.769531 20.914062 -17.636719 C 21.175781 -17.851562 21.597656 -18.203125 22.238281 -18.648438 C 22.777344 -19.015625 23.253906 -19.378906 23.675781 -19.730469 C 24.046875 -20.019531 24.242188 -20.28125 24.269531 -20.519531 C 24.253906 -20.636719 23.832031 -20.695312 23.011719 -20.695312 C 21.4375 -20.59375 19.425781 -19.839844 16.914062 -18.484375 C 14.410156 -17.074219 11.34375 -15.058594 7.730469 -12.316406 C 5.925781 -10.945312 4.316406 -9.835938 3.023438 -9.007812 C 1.671875 -8.171875 0.90625 -7.769531 0.660156 -7.851562 C 0.179688 -7.902344 -0.0820312 -8.511719 -0.0703125 -9.6875 C -0.109375 -10.800781 0.117188 -12.535156 0.597656 -14.957031 C 0.792969 -16.097656 1.214844 -17.277344 1.867188 -18.484375 C 2.527344 -19.636719 3.691406 -21.386719 5.464844 -23.8125 C 7.390625 -26.433594 9.171875 -29.210938 10.859375 -32.269531 C 12.496094 -35.261719 13.851562 -38.15625 14.992188 -40.90625 C 15.554688 -42.335938 16.070312 -43.703125 16.46875 -45.050781 C 16.875 -46.34375 17.121094 -47.492188 17.265625 -48.570312 Z M 5.003906 -31.269531 C 6.015625 -34.117188 7.15625 -36.863281 8.324219 -39.4375 C 9.496094 -41.953125 10.5625 -43.984375 11.570312 -45.597656 C 12.042969 -46.425781 12.535156 -47.082031 12.992188 -47.617188 C 13.394531 -48.085938 13.707031 -48.367188 13.996094 -48.40625 L 14.113281 -48.421875 L 14.167969 -48.429688 C 14.234375 -48.378906 14.308594 -48.273438 14.324219 -48.160156 C 14.375 -47.8125 14.242188 -47.089844 14.023438 -46.117188 C 13.585938 -44.644531 13.003906 -42.917969 12.226562 -40.925781 C 11.796875 -39.808594 11.300781 -38.738281 10.8125 -37.613281 C 10.265625 -36.476562 9.777344 -35.351562 9.21875 -34.332031 C 7.789062 -31.542969 6.472656 -29.183594 5.261719 -27.367188 C 4.285156 -25.9375 3.675781 -25.261719 3.445312 -25.230469 C 3.328125 -25.214844 3.261719 -25.265625 3.246094 -25.378906 C 3.214844 -25.609375 3.355469 -26.277344 3.71875 -27.445312 C 4.035156 -28.546875 4.5 -29.847656 5.003906 -31.269531 Z M 5.003906 -31.269531 "></path></g></g></g><g fill="#000000" fill-opacity="1"><g transform="translate(125.123207, 296.465877)"><g><path d="M 16.523438 -25.015625 C 16.410156 -25 16.285156 -25.039062 16.21875 -25.089844 C 16.105469 -25.074219 16.039062 -25.121094 15.921875 -25.105469 L 15.867188 -25.097656 C 15.578125 -25.058594 15.246094 -24.894531 14.917969 -24.730469 C 14.480469 -24.492188 13.886719 -24.113281 13.195312 -23.605469 C 12.132812 -22.808594 11.207031 -22.269531 10.535156 -22.054688 C 9.867188 -21.785156 8.554688 -21.484375 6.710938 -21.222656 C 5.046875 -20.929688 3.789062 -20.695312 3 -20.464844 C 2.15625 -20.171875 1.390625 -19.769531 0.691406 -19.316406 C -0.652344 -18.425781 -1.800781 -17.382812 -2.765625 -16.304688 C -3.78125 -15.164062 -4.339844 -14.144531 -4.566406 -13.230469 C -4.757812 -12.496094 -4.808594 -12.019531 -4.773438 -11.789062 L -4.765625 -11.730469 C -4.726562 -11.445312 -4.5625 -11.113281 -4.152344 -10.703125 C -3.296875 -9.644531 -1.652344 -9.644531 0.679688 -10.617188 C 3.019531 -11.535156 6.03125 -13.546875 9.765625 -16.65625 C 10.820312 -17.511719 11.769531 -18.289062 12.558594 -18.929688 C 13.351562 -19.570312 13.78125 -19.867188 13.855469 -19.761719 C 13.871094 -19.644531 13.863281 -19.289062 13.695312 -18.796875 C 13.546875 -18.1875 13.453125 -17.585938 13.371094 -16.929688 C 13.128906 -14.898438 13.28125 -13.390625 13.90625 -12.300781 C 14.46875 -11.207031 15.515625 -10.472656 16.976562 -10.089844 C 17.84375 -9.800781 18.789062 -9.757812 19.769531 -9.894531 L 19.941406 -9.917969 C 20.921875 -10.054688 22.4375 -10.5625 24.4375 -11.375 C 26.277344 -12.101562 28.425781 -13.109375 30.933594 -14.523438 C 33.386719 -15.867188 35.605469 -17.238281 37.640625 -18.640625 C 38.714844 -19.378906 39.675781 -20.042969 40.527344 -20.691406 C 41.320312 -21.332031 41.945312 -21.890625 42.339844 -22.417969 C 42.746094 -22.886719 43.109375 -23.230469 43.308594 -23.492188 C 42.402344 -23.246094 41.78125 -23.042969 41.378906 -22.988281 C 40.820312 -22.789062 39.59375 -22.324219 37.648438 -21.519531 C 35.652344 -20.652344 33.617188 -19.660156 31.476562 -18.59375 C 27.074219 -16.449219 23.746094 -15.039062 21.488281 -14.367188 C 19.242188 -13.640625 17.84375 -13.5625 17.292969 -14.128906 C 16.890625 -14.484375 16.742188 -15.109375 16.785156 -16.058594 C 16.785156 -16.882812 17.046875 -18.386719 17.503906 -20.566406 C 17.820312 -22.082031 17.902344 -23.152344 17.820312 -23.726562 C 17.625 -24.289062 17.214844 -24.699219 16.523438 -25.015625 Z M 6.03125 -18.953125 C 6.207031 -18.976562 6.371094 -19.058594 6.601562 -19.09375 C 6.714844 -19.109375 6.878906 -19.191406 6.996094 -19.207031 C 7.398438 -19.261719 7.644531 -19.179688 7.71875 -19.074219 C 7.746094 -18.898438 7.488281 -18.628906 6.960938 -18.203125 C 6.019531 -17.363281 4.414062 -16.257812 2.15625 -14.761719 C 0.226562 -13.433594 -1.085938 -12.71875 -1.660156 -12.640625 C -1.777344 -12.621094 -1.832031 -12.613281 -1.84375 -12.671875 C -1.957031 -12.65625 -2.082031 -12.699219 -2.097656 -12.8125 C -2.136719 -13.101562 -1.648438 -13.816406 -0.644531 -15.015625 C 0.164062 -15.953125 1.171875 -16.742188 2.375 -17.378906 C 3.578125 -18.019531 4.796875 -18.542969 6.03125 -18.953125 Z M 6.03125 -18.953125 "></path></g></g></g><g fill="#000000" fill-opacity="1"><g transform="translate(168.810643, 290.318237)"><g><path d="M 17.199219 -41.097656 C 18.40625 -43.382812 18.765625 -45.433594 18.273438 -47.246094 C 17.800781 -48.941406 16.929688 -49.699219 15.777344 -49.539062 L 15.660156 -49.523438 C 15.199219 -49.457031 14.753906 -49.277344 14.269531 -48.972656 C 13.726562 -48.660156 13.199219 -48.234375 12.6875 -47.691406 C 12.167969 -47.207031 11.554688 -46.535156 10.902344 -45.738281 C 10.261719 -44.882812 9.625 -43.96875 8.949219 -42.933594 C 7.578125 -40.976562 6.296875 -38.800781 4.992188 -36.382812 C 3.628906 -33.957031 2.542969 -31.628906 1.734375 -29.457031 C 1.386719 -28.585938 1.085938 -27.78125 0.824219 -27.15625 L 0.0273438 -25.28125 L -1.183594 -25.109375 L -2.335938 -24.945312 C -3.839844 -24.792969 -4.535156 -24.285156 -4.46875 -23.410156 L -4.4375 -23.179688 C -4.324219 -22.375 -3.953125 -21.839844 -3.199219 -21.476562 C -3.066406 -21.375 -2.710938 -21.367188 -2.195312 -21.441406 C -1.734375 -21.503906 -1.378906 -21.496094 -1.03125 -21.542969 C -0.984375 -21.199219 -1.140625 -20.648438 -1.375 -19.792969 C -1.664062 -18.929688 -1.929688 -17.890625 -2.1875 -16.796875 C -2.378906 -16.066406 -2.496094 -15.226562 -2.554688 -14.394531 C -2.65625 -13.441406 -2.648438 -12.558594 -2.578125 -11.628906 C -2.554688 -9.808594 -2.378906 -8.128906 -2.042969 -6.589844 C -1.757812 -4.984375 -1.382812 -3.980469 -0.914062 -3.574219 C -0.0703125 -2.578125 1.042969 -2.203125 2.359375 -2.449219 L 2.820312 -2.511719 C 4.304688 -2.839844 5.941406 -3.714844 7.640625 -5.011719 C 8.8125 -5.882812 10.082031 -6.886719 11.558594 -8.09375 C 12.984375 -9.234375 15.234375 -11.195312 18.3125 -13.980469 C 20.347656 -15.796875 22.261719 -17.238281 23.976562 -18.421875 C 25.691406 -19.601562 26.871094 -20.414062 27.554688 -20.984375 C 27.71875 -21.0625 27.761719 -21.1875 27.746094 -21.304688 L 27.734375 -21.359375 C 27.664062 -21.46875 27.480469 -21.5 27.242188 -21.527344 C 26.253906 -21.445312 24.679688 -20.929688 22.472656 -19.914062 C 20.265625 -18.898438 17.304688 -16.953125 13.652344 -14.089844 C 12.011719 -12.800781 10.628906 -11.78125 9.457031 -10.910156 C 8.285156 -10.042969 7.273438 -9.3125 6.519531 -8.792969 C 4.640625 -7.53125 3.539062 -7.023438 3.160156 -7.203125 C 2.78125 -7.386719 2.4375 -7.75 2.125 -8.292969 C 1.902344 -8.613281 1.789062 -9.421875 1.785156 -10.714844 C 1.722656 -12 1.824219 -13.363281 2.03125 -14.804688 C 2.097656 -15.578125 2.222656 -16.359375 2.347656 -17.140625 C 2.480469 -17.867188 2.679688 -18.539062 2.886719 -19.15625 C 3.34375 -20.515625 3.667969 -21.558594 3.914062 -22.300781 C 4.929688 -22.617188 5.941406 -22.9375 7.078125 -23.214844 C 8.101562 -23.476562 9.113281 -23.796875 10.070312 -24.105469 C 11.648438 -24.5625 12.941406 -24.980469 13.882812 -25.40625 C 14.773438 -25.765625 15.25 -26.128906 15.210938 -26.417969 C 15.277344 -26.777344 14.660156 -26.984375 13.492188 -26.9375 C 12.265625 -26.882812 10.988281 -26.761719 9.660156 -26.578125 C 8.847656 -26.519531 7.925781 -26.390625 7.003906 -26.261719 L 4.8125 -25.953125 C 4.773438 -26.242188 5.050781 -26.75 5.722656 -27.433594 C 6.390625 -28.113281 7.371094 -29.074219 8.730469 -30.265625 C 9.574219 -30.972656 10.488281 -31.984375 11.601562 -33.257812 C 12.722656 -34.472656 13.714844 -35.789062 14.707031 -37.101562 C 15.199219 -37.761719 15.6875 -38.476562 16.117188 -39.183594 C 16.554688 -39.832031 16.933594 -40.472656 17.199219 -41.097656 Z M 13.148438 -43.996094 C 13.550781 -44.464844 13.90625 -44.867188 14.269531 -45.210938 C 14.527344 -45.484375 14.738281 -45.628906 14.914062 -45.65625 L 14.96875 -45.664062 C 14.96875 -45.664062 15.035156 -45.613281 15.035156 -45.613281 L 15.042969 -45.554688 C 15.050781 -45.496094 15.117188 -45.449219 15.117188 -45.449219 C 15.183594 -44.988281 14.886719 -44.179688 14.289062 -42.980469 C 13.605469 -41.589844 12.644531 -40.046875 11.433594 -38.230469 C 10.359375 -36.667969 9.308594 -35.34375 8.1875 -34.128906 C 7.378906 -33.191406 6.792969 -32.757812 6.5625 -32.722656 C 6.449219 -32.707031 6.441406 -32.765625 6.421875 -32.878906 C 6.398438 -33.054688 6.707031 -33.800781 7.457031 -35.140625 C 8.21875 -36.425781 9.027344 -37.773438 9.9375 -39.253906 C 10.515625 -40.15625 11.148438 -41.070312 11.726562 -41.972656 C 12.3125 -42.820312 12.75 -43.46875 13.148438 -43.996094 Z M 13.148438 -43.996094 "></path></g></g></g><g fill="#000000" fill-opacity="1"><g transform="translate(197.167132, 286.327948)"><g><path d="M 10.042969 -20.515625 C 10.753906 -21.734375 10.847656 -22.746094 10.257812 -23.601562 C 9.683594 -24.34375 8.6875 -24.734375 7.402344 -24.671875 L 7 -24.613281 L 6.421875 -24.535156 C 6.085938 -24.425781 5.746094 -24.320312 5.410156 -24.214844 C 3.738281 -23.566406 2.121094 -22.515625 0.6875 -21.023438 C -0.808594 -19.519531 -1.929688 -17.890625 -2.699219 -16.253906 C -3.160156 -15.367188 -3.453125 -14.503906 -3.570312 -13.664062 C -3.703125 -12.941406 -3.734375 -12.347656 -3.65625 -11.769531 L -3.597656 -11.367188 C -3.34375 -10.402344 -2.871094 -9.53125 -2.0625 -8.820312 C -1.367188 -8.035156 -0.460938 -7.457031 0.640625 -7.144531 C 1.816406 -6.722656 3.480469 -6.601562 5.570312 -6.78125 L 6.261719 -6.875 C 8.105469 -7.136719 10.140625 -7.714844 12.242188 -8.660156 C 13.347656 -9.167969 14.558594 -9.75 15.800781 -10.511719 C 16.988281 -11.265625 18.234375 -12.03125 19.40625 -12.898438 C 21.546875 -14.375 23.386719 -15.929688 24.929688 -17.496094 C 26.480469 -19.007812 27.214844 -20.054688 27.183594 -20.695312 L 27.167969 -20.808594 C 27.152344 -20.925781 27.070312 -21.089844 27.050781 -21.207031 C 26.980469 -21.3125 26.90625 -21.421875 26.90625 -21.421875 C 26.789062 -21.402344 25.917969 -20.929688 24.285156 -19.992188 C 22.59375 -19.050781 20.640625 -17.894531 18.433594 -16.464844 C 13.859375 -13.472656 10.238281 -11.609375 7.503906 -10.988281 C 4.78125 -10.3125 2.492188 -10.285156 0.691406 -10.972656 C -0.0664062 -11.335938 -0.492188 -11.863281 -0.648438 -12.546875 C -0.851562 -13.164062 -0.734375 -14.003906 -0.296875 -15.066406 C -0.132812 -15.558594 0.164062 -15.953125 0.59375 -16.25 C 0.972656 -16.476562 1.648438 -16.691406 2.621094 -16.886719 C 4.332031 -17.246094 5.90625 -17.761719 7.339844 -18.433594 C 8.714844 -19.097656 9.625 -19.753906 10.042969 -20.515625 Z M 4.628906 -20.988281 C 5.222656 -21.367188 5.71875 -21.613281 6.171875 -21.734375 C 6.515625 -21.785156 6.738281 -21.875 6.96875 -21.90625 L 7.140625 -21.929688 C 7.324219 -21.898438 7.445312 -21.855469 7.460938 -21.742188 C 7.480469 -21.625 7.4375 -21.503906 7.347656 -21.3125 C 7.058594 -20.859375 6.808594 -20.53125 6.488281 -20.308594 C 5.523438 -19.644531 4.699219 -19.234375 4.132812 -19.097656 C 3.621094 -18.964844 3.273438 -18.917969 3.042969 -18.886719 L 2.871094 -18.859375 C 2.699219 -18.835938 2.632812 -18.886719 2.617188 -19 C 2.601562 -19.117188 2.699219 -19.25 2.953125 -19.519531 C 3.359375 -19.988281 3.9375 -20.480469 4.628906 -20.988281 Z M 4.628906 -20.988281 "></path></g></g></g><g fill="#000000" fill-opacity="1"><g transform="translate(225.523621, 282.33766)"><g><path d="M 25.085938 -53.140625 C 24.898438 -53.230469 24.585938 -53.363281 24.164062 -53.421875 C 23.6875 -53.472656 23.269531 -53.53125 22.863281 -53.472656 C 22.402344 -53.410156 21.859375 -53.097656 21.28125 -52.605469 C 20.65625 -52.046875 20.042969 -51.375 19.335938 -50.566406 C 18.148438 -48.988281 16.839844 -46.984375 15.496094 -44.445312 C 14.148438 -41.902344 12.875 -39.253906 11.75 -36.390625 C 10.789062 -34.023438 9.894531 -31.605469 9.171875 -29.210938 C 8.460938 -26.761719 7.894531 -24.503906 7.539062 -22.457031 C 7.238281 -20.414062 6.980469 -18.910156 6.820312 -17.949219 C 6.148438 -18.558594 5.671875 -19.019531 5.324219 -19.382812 C 3.839844 -20.761719 2.234375 -20.886719 0.503906 -19.820312 C -1.34375 -18.738281 -2.8125 -16.652344 -4.039062 -13.65625 C -4.773438 -11.789062 -5.015625 -10.167969 -4.820312 -8.785156 C -4.773438 -8.4375 -4.734375 -8.152344 -4.585938 -7.9375 C -4.109375 -6.238281 -3.132812 -5.554688 -1.640625 -5.824219 C -0.835938 -5.9375 0.210938 -6.4375 1.613281 -7.339844 C 2.957031 -8.234375 4.101562 -9.277344 5.011719 -10.34375 C 5.414062 -10.8125 5.820312 -11.28125 6.230469 -11.691406 C 6.59375 -12.039062 6.800781 -12.242188 6.914062 -12.257812 C 6.972656 -12.265625 7.179688 -12.0625 7.457031 -11.746094 C 7.746094 -11.375 7.984375 -10.941406 8.277344 -10.511719 C 8.976562 -9.316406 9.683594 -8.476562 10.414062 -7.871094 C 11.09375 -7.203125 11.984375 -6.742188 13.078125 -6.484375 C 13.941406 -6.195312 14.886719 -6.152344 15.984375 -6.304688 C 17.25 -6.484375 18.71875 -6.925781 20.363281 -7.746094 C 23.347656 -9.105469 26.347656 -11.171875 29.292969 -14.054688 C 29.921875 -14.613281 30.589844 -15.296875 31.257812 -15.976562 C 31.867188 -16.652344 32.476562 -17.324219 33.089844 -18 C 34.210938 -19.214844 35.109375 -20.339844 35.785156 -21.375 C 36.375 -22.222656 36.703125 -22.800781 36.671875 -23.03125 C 36.671875 -23.03125 36.605469 -23.078125 36.605469 -23.078125 C 36.472656 -23.179688 36.144531 -23.015625 35.601562 -22.703125 C 35.066406 -22.332031 34.421875 -21.890625 33.738281 -21.324219 C 26.539062 -15.253906 21.214844 -11.742188 17.703125 -10.78125 C 14.144531 -9.75 12.117188 -11.226562 11.554688 -15.203125 C 11.378906 -16.472656 11.355469 -17.46875 11.613281 -18.152344 C 11.761719 -18.761719 12.464844 -20.035156 13.605469 -21.957031 C 16.800781 -27.226562 19.417969 -32.003906 21.503906 -36.414062 C 23.539062 -40.753906 24.910156 -44.359375 25.566406 -47.210938 C 25.949219 -48.675781 26.066406 -49.929688 26.035156 -50.980469 C 25.898438 -51.960938 25.621094 -52.6875 25.085938 -53.140625 Z M 19.21875 -45.144531 C 20.109375 -46.738281 20.820312 -47.957031 21.40625 -48.800781 C 22 -49.589844 22.414062 -50 22.683594 -50.15625 L 22.800781 -50.171875 C 22.914062 -50.191406 23.046875 -50.089844 23.078125 -49.859375 C 23.152344 -49.339844 22.902344 -48.191406 22.378906 -46.46875 C 21.527344 -43.765625 20.0625 -40.382812 18.0625 -36.222656 C 16.226562 -32.554688 14.929688 -30.082031 14.210938 -28.921875 C 13.738281 -28.089844 13.386719 -27.6875 13.15625 -27.65625 C 13.039062 -27.640625 12.972656 -27.6875 12.941406 -27.917969 L 12.933594 -27.976562 C 12.867188 -28.4375 13.117188 -29.589844 13.730469 -31.5 C 14.34375 -33.40625 15.054688 -35.445312 15.917969 -37.683594 C 16.480469 -39.117188 17.050781 -40.488281 17.621094 -41.863281 C 18.199219 -43.179688 18.753906 -44.253906 19.21875 -45.144531 Z M -2.304688 -10.960938 C -2.296875 -11.316406 -2.140625 -11.867188 -1.816406 -12.5 C -1.554688 -13.125 -1.230469 -13.757812 -0.859375 -14.457031 C -0.289062 -15.417969 0.40625 -16.339844 1.105469 -17.203125 C 1.816406 -18.007812 2.34375 -18.433594 2.746094 -18.492188 C 3.324219 -18.570312 3.847656 -18.175781 4.425781 -17.433594 C 4.734375 -16.890625 4.980469 -16.394531 5.046875 -15.933594 C 5.085938 -15.644531 5.0625 -15.40625 5.035156 -15.167969 C 4.953125 -14.921875 4.722656 -14.476562 4.277344 -13.886719 C 3.773438 -13.285156 3.269531 -12.6875 2.652344 -12.070312 C 0.589844 -10.015625 -0.78125 -8.882812 -1.472656 -8.785156 L -1.527344 -8.777344 C -1.992188 -8.714844 -2.203125 -8.976562 -2.300781 -9.667969 C -2.351562 -10.015625 -2.347656 -10.425781 -2.304688 -10.960938 Z M -2.304688 -10.960938 "></path></g></g></g><path fill="#ffed00" d="M 186.710938 282.78125 L 335.613281 261.828125 C 340.492188 261.140625 345.441406 262.417969 349.375 265.375 C 353.308594 268.332031 355.902344 272.730469 356.589844 277.597656 L 361.753906 314.316406 C 362.441406 319.183594 361.160156 324.125 358.195312 328.054688 C 355.230469 331.984375 350.824219 334.574219 345.949219 335.261719 L 197.042969 356.214844 C 186.886719 357.644531 177.496094 350.582031 176.070312 340.445312 L 170.902344 303.726562 C 169.476562 293.589844 176.554688 284.210938 186.710938 282.78125 " fill-opacity="1" fill-rule="nonzero"></path><g fill="#000000" fill-opacity="1"><g transform="translate(194.952088, 333.204244)"><g><path d="M 14.421875 -42.554688 C 14.386719 -42.792969 14.210938 -43.011719 13.945312 -43.167969 C 13.632812 -43.320312 13.332031 -43.375 13.046875 -43.335938 L 12.953125 -43.320312 L 12.761719 -43.292969 C 12.671875 -43.234375 12.585938 -43.171875 12.496094 -43.113281 C 12.277344 -42.933594 11.839844 -41.902344 11.230469 -40.019531 C 10.628906 -38.085938 9.964844 -35.902344 9.25 -33.375 C 8.859375 -32.007812 8.46875 -30.640625 8.125 -29.277344 C 7.742188 -27.863281 7.398438 -26.503906 7.089844 -25.246094 C 6.664062 -23.4375 6.304688 -21.832031 5.96875 -20.421875 C 5.585938 -19.007812 5.40625 -18.207031 5.332031 -18.050781 C 5.230469 -17.742188 4.867188 -17.546875 4.308594 -17.371094 C 3.757812 -17.148438 2.820312 -16.917969 1.578125 -16.746094 C 0.59375 -16.507812 -0.210938 -16.347656 -0.863281 -16.15625 C -1.519531 -15.96875 -1.832031 -15.777344 -1.816406 -15.683594 C -1.710938 -14.921875 -0.914062 -14.449219 0.574219 -14.222656 C 2.070312 -13.945312 3.390625 -13.890625 4.628906 -14.0625 C 4.601562 -13.574219 4.566406 -12.789062 4.433594 -11.65625 C 4.308594 -10.472656 4.175781 -9.335938 4.085938 -8.253906 C 3.90625 -6.429688 3.785156 -4.515625 3.722656 -2.566406 C 3.664062 -0.5625 3.660156 1.136719 3.710938 2.539062 C 3.722656 3.316406 3.816406 3.980469 3.882812 4.457031 C 3.902344 4.941406 3.996094 5.269531 4.105469 5.351562 C 4.167969 5.4375 4.222656 5.480469 4.316406 5.464844 C 4.507812 5.441406 4.773438 4.917969 5.109375 3.847656 C 5.5 2.480469 6.070312 -0.367188 6.910156 -4.761719 C 7.351562 -7.15625 7.777344 -9.308594 8.195312 -11.164062 C 8.621094 -12.972656 8.871094 -13.980469 8.992188 -14.144531 C 9.121094 -14.257812 9.441406 -14.398438 9.945312 -14.617188 C 10.457031 -14.785156 11.015625 -14.960938 11.621094 -15.144531 C 12.886719 -15.46875 14.351562 -16.113281 16.070312 -17.035156 C 17.691406 -17.941406 19.339844 -19 20.953125 -20.296875 C 22.003906 -21.125 23.230469 -22.414062 24.683594 -24.175781 C 26.097656 -25.878906 27.40625 -27.617188 28.527344 -29.332031 C 29.136719 -30.195312 29.648438 -31.042969 30.113281 -31.886719 C 30.582031 -32.683594 30.875 -33.355469 31.082031 -33.96875 C 31.71875 -36 31.960938 -37.734375 31.765625 -39.117188 C 31.738281 -39.308594 31.660156 -39.539062 31.625 -39.777344 C 31.226562 -41.226562 30.308594 -42.21875 28.773438 -42.777344 C 26.890625 -43.386719 24.765625 -42.941406 22.449219 -41.449219 C 20.085938 -39.953125 17.484375 -37.351562 14.640625 -33.742188 C 12.996094 -31.617188 12.101562 -30.714844 12.015625 -30.992188 C 11.878906 -31.265625 12.324219 -33.273438 13.292969 -37.101562 C 13.59375 -38.40625 13.910156 -39.617188 14.144531 -40.71875 C 14.335938 -41.765625 14.449219 -42.367188 14.421875 -42.554688 Z M 24.949219 -39.226562 C 25.363281 -39.382812 25.730469 -39.53125 26.050781 -39.671875 C 26.324219 -39.808594 26.601562 -39.898438 26.890625 -39.9375 L 27.03125 -39.957031 C 27.460938 -40.019531 27.816406 -39.921875 28.039062 -39.710938 C 28.277344 -39.402344 28.4375 -38.941406 28.527344 -38.320312 C 28.632812 -37.558594 28.515625 -36.667969 28.171875 -35.648438 C 27.832031 -34.628906 27.34375 -33.585938 26.683594 -32.425781 C 25.472656 -30.3125 23.824219 -28.230469 21.789062 -26.101562 C 19.710938 -23.960938 17.570312 -22.25 15.320312 -20.960938 C 13.972656 -20.1875 12.890625 -19.597656 12.105469 -19.292969 C 11.644531 -19.132812 11.316406 -19.039062 11.125 -19.011719 C 10.886719 -18.976562 10.746094 -18.957031 10.636719 -19.039062 C 10.582031 -19.078125 10.574219 -19.128906 10.5625 -19.222656 C 10.527344 -19.460938 10.609375 -19.910156 10.800781 -20.617188 C 11.0625 -21.527344 11.492188 -22.609375 12.046875 -23.855469 C 12.347656 -24.480469 12.640625 -25.152344 12.984375 -25.832031 C 13.285156 -26.457031 13.625 -27.136719 14.023438 -27.777344 C 15.511719 -30.320312 17.3125 -32.710938 19.339844 -34.890625 C 21.371094 -37.023438 23.257812 -38.453125 24.949219 -39.226562 Z M 24.949219 -39.226562 "></path></g></g></g><g fill="#000000" fill-opacity="1"><g transform="translate(227.160353, 328.671938)"><g><path d="M 3.25 -18 C 2.617188 -18.347656 2.058594 -18.511719 1.582031 -18.445312 L 1.488281 -18.433594 C 1.011719 -18.363281 0.554688 -18.15625 0.160156 -17.855469 C -0.628906 -17.257812 -1.277344 -16.34375 -1.738281 -15.109375 C -2.242188 -13.875 -2.585938 -12.855469 -2.75 -11.957031 C -2.894531 -11.253906 -2.890625 -10.527344 -2.796875 -9.859375 C -2.734375 -9.429688 -2.683594 -9.050781 -2.535156 -8.683594 C -2.183594 -7.566406 -1.695312 -6.855469 -1.007812 -6.46875 C -0.476562 -6.152344 0.0742188 -6.035156 0.691406 -6.125 C 0.929688 -6.15625 1.210938 -6.246094 1.484375 -6.378906 C 2.363281 -6.699219 3.1875 -7.398438 3.972656 -8.382812 C 4.21875 -8.707031 4.503906 -9.089844 4.722656 -9.605469 C 4.953125 -10.027344 5.144531 -10.394531 5.304688 -10.660156 C 5.617188 -10.507812 6.480469 -10.582031 7.808594 -10.816406 C 9.136719 -11.054688 10.550781 -11.347656 12 -11.746094 C 12.75 -11.949219 13.453125 -12.144531 14.195312 -12.394531 C 14.894531 -12.59375 15.496094 -12.824219 16.046875 -13.046875 C 17.246094 -13.507812 18.429688 -14.0625 19.609375 -14.664062 C 20.789062 -15.269531 21.777344 -15.84375 22.484375 -16.332031 C 22.839844 -16.578125 23.105469 -16.761719 23.316406 -16.984375 C 23.492188 -17.105469 23.570312 -17.261719 23.554688 -17.359375 L 23.546875 -17.40625 C 23.441406 -17.488281 22.628906 -17.375 21.023438 -17.050781 C 19.421875 -16.679688 17.496094 -16.214844 15.34375 -15.621094 C 13.050781 -15.003906 11.035156 -14.480469 9.332031 -14.140625 C 7.546875 -13.695312 6.355469 -13.527344 5.765625 -13.589844 C 5.730469 -14.167969 5.632812 -14.882812 5.464844 -15.734375 C 5.246094 -16.578125 4.515625 -17.304688 3.25 -18 Z M 1.117188 -16.242188 L 1.257812 -16.261719 C 1.308594 -16.269531 1.347656 -16.324219 1.394531 -16.328125 L 1.679688 -16.371094 C 2.253906 -16.449219 2.816406 -16.238281 3.265625 -15.816406 C 3.542969 -15.5625 3.734375 -15.25 3.773438 -14.964844 C 3.8125 -14.675781 3.757812 -14.378906 3.609375 -14.066406 C 3.160156 -14.148438 2.683594 -14.421875 2.132812 -14.878906 C 1.589844 -15.289062 1.230469 -15.773438 1.117188 -16.242188 Z M -0.078125 -8.832031 C -0.390625 -8.984375 -0.550781 -9.445312 -0.652344 -10.160156 C -0.6875 -10.398438 -0.726562 -10.6875 -0.730469 -11.074219 C -0.757812 -12.285156 -0.542969 -13.191406 -0.140625 -13.78125 C 0.292969 -13.113281 0.800781 -12.601562 1.441406 -12.207031 C 2.03125 -11.800781 2.507812 -11.53125 2.8125 -11.425781 C 2.835938 -11.285156 2.765625 -11.078125 2.617188 -10.765625 C 2.417969 -10.449219 2.265625 -10.136719 2.101562 -9.917969 C 1.78125 -9.433594 1.441406 -9.09375 1.03125 -8.890625 C 0.855469 -8.769531 0.664062 -8.742188 0.523438 -8.722656 C 0.285156 -8.691406 0.0859375 -8.710938 -0.078125 -8.832031 Z M -0.078125 -8.832031 "></path></g></g></g><g fill="#000000" fill-opacity="1"><g transform="translate(251.411843, 325.2593)"><g><path d="M 7.574219 -16.617188 C 7.304688 -17.160156 6.609375 -17.597656 5.542969 -17.933594 C 4.433594 -18.214844 3.304688 -18.300781 2.105469 -18.179688 C 1.964844 -18.160156 1.8125 -18.1875 1.71875 -18.171875 C 1.195312 -18.097656 0.726562 -17.984375 0.261719 -17.820312 C -0.390625 -17.632812 -0.890625 -17.367188 -1.324219 -17.015625 C -1.980469 -16.484375 -2.234375 -15.867188 -2.132812 -15.152344 C -2.070312 -14.722656 -1.917969 -14.308594 -1.660156 -13.859375 C -0.933594 -12.503906 0.546875 -11.300781 2.785156 -10.257812 C 3.316406 -9.941406 3.933594 -9.6875 4.550781 -9.4375 C 5.128906 -9.128906 5.550781 -8.894531 5.855469 -8.792969 C 6.277344 -8.5625 6.644531 -8.371094 6.855469 -8.253906 C 6.570312 -7.53125 6.308594 -6.960938 6.164062 -6.601562 C 5.734375 -5.519531 5.535156 -4.519531 5.613281 -3.609375 C 5.703125 -2.648438 6.046875 -1.921875 6.699219 -1.429688 C 7.371094 -0.792969 8.234375 -0.527344 9.378906 -0.6875 L 9.523438 -0.707031 C 10.570312 -0.855469 11.386719 -1.261719 12.054688 -2.035156 C 12.382812 -2.472656 12.617188 -2.894531 12.746094 -3.347656 C 12.835938 -3.75 12.851562 -4.335938 12.789062 -5.105469 C 12.738281 -5.484375 12.617188 -6.003906 12.332031 -6.644531 C 12.054688 -7.234375 11.699219 -7.671875 11.320312 -7.957031 C 11.742188 -8.40625 12.804688 -9.140625 14.515625 -10.109375 C 16.136719 -11.019531 18.039062 -12.015625 20.175781 -13.042969 C 21.265625 -13.585938 22.460938 -14.09375 23.652344 -14.601562 C 24.84375 -15.109375 25.996094 -15.5625 27.144531 -16.015625 C 28.949219 -16.660156 30.332031 -17.195312 31.230469 -17.710938 C 31.871094 -17.992188 32.125 -18.273438 32.097656 -18.464844 C 32.089844 -18.511719 32.035156 -18.550781 31.929688 -18.632812 C 28.804688 -19.070312 25.597656 -18.714844 22.261719 -17.566406 C 18.925781 -16.414062 16.085938 -15.1875 13.695312 -13.882812 C 12.390625 -13.113281 11.273438 -12.421875 10.390625 -11.8125 C 9.503906 -11.203125 8.847656 -10.671875 8.507812 -10.332031 C 8.304688 -10.402344 7.773438 -10.714844 6.882812 -11.171875 C 5.945312 -11.625 5.054688 -12.082031 4.203125 -12.59375 C 3.578125 -12.894531 3.050781 -13.210938 2.613281 -13.535156 C 2.097656 -13.753906 1.824219 -13.960938 1.703125 -14.136719 C 1.378906 -14.382812 1.28125 -14.710938 1.433594 -15.023438 C 1.488281 -15.320312 1.898438 -15.523438 2.550781 -15.714844 C 2.835938 -15.753906 3.457031 -15.84375 4.375 -15.875 C 5.253906 -15.851562 5.878906 -15.890625 6.308594 -15.953125 C 6.789062 -15.972656 7.171875 -16.023438 7.398438 -16.152344 C 7.574219 -16.277344 7.648438 -16.433594 7.574219 -16.617188 Z M 9.242188 -3.390625 L 9.195312 -3.382812 C 8.859375 -3.335938 8.644531 -3.5 8.582031 -3.929688 C 8.535156 -3.921875 8.527344 -3.96875 8.523438 -4.019531 C 8.460938 -4.445312 8.699219 -5.160156 9.246094 -6.113281 C 9.839844 -5.710938 10.191406 -5.273438 10.246094 -4.890625 C 10.273438 -4.703125 10.246094 -4.550781 10.167969 -4.394531 C 9.917969 -3.777344 9.621094 -3.445312 9.242188 -3.390625 Z M 9.242188 -3.390625 "></path></g></g></g><g fill="#000000" fill-opacity="1"><g transform="translate(284.62066, 320.586198)"><g><path d="M 14.21875 -33.976562 C 15.214844 -35.867188 15.511719 -37.558594 15.109375 -39.058594 C 14.714844 -40.460938 13.996094 -41.085938 13.042969 -40.953125 L 12.949219 -40.941406 C 12.566406 -40.886719 12.199219 -40.738281 11.796875 -40.484375 C 11.347656 -40.230469 10.910156 -39.875 10.488281 -39.425781 C 10.058594 -39.027344 9.554688 -38.46875 9.015625 -37.8125 C 8.480469 -37.105469 7.957031 -36.351562 7.398438 -35.492188 C 6.265625 -33.875 5.207031 -32.074219 4.125 -30.078125 C 3 -28.070312 2.101562 -26.148438 1.433594 -24.351562 C 1.144531 -23.632812 0.898438 -22.964844 0.679688 -22.449219 L 0.0234375 -20.898438 L -0.976562 -20.757812 L -1.929688 -20.625 C -3.175781 -20.496094 -3.75 -20.078125 -3.695312 -19.355469 L -3.667969 -19.164062 C -3.574219 -18.496094 -3.269531 -18.054688 -2.644531 -17.753906 C -2.535156 -17.671875 -2.242188 -17.664062 -1.8125 -17.722656 C -1.433594 -17.777344 -1.140625 -17.769531 -0.855469 -17.8125 C -0.8125 -17.523438 -0.945312 -17.070312 -1.136719 -16.363281 C -1.375 -15.648438 -1.59375 -14.789062 -1.808594 -13.886719 C -1.964844 -13.28125 -2.0625 -12.585938 -2.113281 -11.898438 C -2.195312 -11.109375 -2.191406 -10.382812 -2.128906 -9.613281 C -2.113281 -8.109375 -1.964844 -6.722656 -1.691406 -5.449219 C -1.453125 -4.121094 -1.144531 -3.289062 -0.757812 -2.953125 C -0.0585938 -2.128906 0.859375 -1.820312 1.949219 -2.023438 L 2.332031 -2.078125 C 3.558594 -2.347656 4.914062 -3.074219 6.316406 -4.144531 C 7.285156 -4.863281 8.335938 -5.691406 9.554688 -6.691406 C 10.734375 -7.632812 12.59375 -9.253906 15.136719 -11.558594 C 16.824219 -13.058594 18.402344 -14.253906 19.820312 -15.230469 C 21.238281 -16.207031 22.214844 -16.878906 22.777344 -17.347656 C 22.914062 -17.414062 22.949219 -17.515625 22.9375 -17.609375 L 22.929688 -17.660156 C 22.867188 -17.746094 22.71875 -17.773438 22.523438 -17.796875 C 21.703125 -17.730469 20.402344 -17.304688 18.578125 -16.464844 C 16.753906 -15.625 14.304688 -14.015625 11.285156 -11.648438 C 9.929688 -10.582031 8.785156 -9.738281 7.816406 -9.019531 C 6.851562 -8.300781 6.011719 -7.699219 5.390625 -7.269531 C 3.835938 -6.226562 2.925781 -5.804688 2.613281 -5.957031 C 2.300781 -6.105469 2.015625 -6.40625 1.757812 -6.855469 C 1.574219 -7.121094 1.480469 -7.789062 1.476562 -8.855469 C 1.421875 -9.917969 1.507812 -11.046875 1.679688 -12.238281 C 1.734375 -12.878906 1.839844 -13.523438 1.941406 -14.171875 C 2.050781 -14.769531 2.214844 -15.328125 2.386719 -15.835938 C 2.765625 -16.960938 3.03125 -17.824219 3.238281 -18.433594 C 4.074219 -18.699219 4.914062 -18.960938 5.851562 -19.191406 C 6.695312 -19.40625 7.535156 -19.671875 8.324219 -19.929688 C 9.632812 -20.308594 10.699219 -20.652344 11.476562 -21.003906 C 12.210938 -21.300781 12.609375 -21.601562 12.574219 -21.839844 C 12.628906 -22.136719 12.117188 -22.308594 11.152344 -22.269531 C 10.136719 -22.226562 9.082031 -22.125 7.988281 -21.96875 C 7.3125 -21.925781 6.550781 -21.816406 5.789062 -21.710938 L 3.976562 -21.457031 C 3.945312 -21.691406 4.175781 -22.113281 4.730469 -22.679688 C 5.28125 -23.242188 6.09375 -24.035156 7.21875 -25.019531 C 7.914062 -25.605469 8.671875 -26.441406 9.589844 -27.492188 C 10.519531 -28.5 11.339844 -29.585938 12.15625 -30.671875 C 12.566406 -31.214844 12.96875 -31.808594 13.324219 -32.390625 C 13.6875 -32.929688 14 -33.457031 14.21875 -33.976562 Z M 10.871094 -36.371094 C 11.203125 -36.757812 11.496094 -37.089844 11.796875 -37.375 C 12.007812 -37.601562 12.183594 -37.722656 12.328125 -37.742188 L 12.375 -37.75 C 12.375 -37.75 12.429688 -37.707031 12.429688 -37.707031 L 12.4375 -37.660156 C 12.445312 -37.613281 12.5 -37.570312 12.5 -37.570312 C 12.550781 -37.191406 12.304688 -36.523438 11.8125 -35.53125 C 11.246094 -34.382812 10.453125 -33.105469 9.449219 -31.605469 C 8.5625 -30.3125 7.695312 -29.21875 6.769531 -28.214844 C 6.101562 -27.4375 5.617188 -27.078125 5.425781 -27.050781 C 5.332031 -27.039062 5.324219 -27.085938 5.3125 -27.183594 C 5.289062 -27.324219 5.542969 -27.945312 6.164062 -29.050781 C 6.792969 -30.113281 7.460938 -31.226562 8.214844 -32.449219 C 8.691406 -33.199219 9.21875 -33.953125 9.695312 -34.699219 C 10.179688 -35.398438 10.542969 -35.9375 10.871094 -36.371094 Z M 10.871094 -36.371094 "></path></g></g></g><g fill="#000000" fill-opacity="1"><g transform="translate(308.062178, 317.287537)"><g><path d="M 7.574219 -16.617188 C 7.304688 -17.160156 6.609375 -17.597656 5.542969 -17.933594 C 4.433594 -18.214844 3.304688 -18.300781 2.105469 -18.179688 C 1.964844 -18.160156 1.8125 -18.1875 1.71875 -18.171875 C 1.195312 -18.097656 0.726562 -17.984375 0.261719 -17.820312 C -0.390625 -17.632812 -0.890625 -17.367188 -1.324219 -17.015625 C -1.980469 -16.484375 -2.234375 -15.867188 -2.132812 -15.152344 C -2.070312 -14.722656 -1.917969 -14.308594 -1.660156 -13.859375 C -0.933594 -12.503906 0.546875 -11.300781 2.785156 -10.257812 C 3.316406 -9.941406 3.933594 -9.6875 4.550781 -9.4375 C 5.128906 -9.128906 5.550781 -8.894531 5.855469 -8.792969 C 6.277344 -8.5625 6.644531 -8.371094 6.855469 -8.253906 C 6.570312 -7.53125 6.308594 -6.960938 6.164062 -6.601562 C 5.734375 -5.519531 5.535156 -4.519531 5.613281 -3.609375 C 5.703125 -2.648438 6.046875 -1.921875 6.699219 -1.429688 C 7.371094 -0.792969 8.234375 -0.527344 9.378906 -0.6875 L 9.523438 -0.707031 C 10.570312 -0.855469 11.386719 -1.261719 12.054688 -2.035156 C 12.382812 -2.472656 12.617188 -2.894531 12.746094 -3.347656 C 12.835938 -3.75 12.851562 -4.335938 12.789062 -5.105469 C 12.738281 -5.484375 12.617188 -6.003906 12.332031 -6.644531 C 12.054688 -7.234375 11.699219 -7.671875 11.320312 -7.957031 C 11.742188 -8.40625 12.804688 -9.140625 14.515625 -10.109375 C 16.136719 -11.019531 18.039062 -12.015625 20.175781 -13.042969 C 21.265625 -13.585938 22.460938 -14.09375 23.652344 -14.601562 C 24.84375 -15.109375 25.996094 -15.5625 27.144531 -16.015625 C 28.949219 -16.660156 30.332031 -17.195312 31.230469 -17.710938 C 31.871094 -17.992188 32.125 -18.273438 32.097656 -18.464844 C 32.089844 -18.511719 32.035156 -18.550781 31.929688 -18.632812 C 28.804688 -19.070312 25.597656 -18.714844 22.261719 -17.566406 C 18.925781 -16.414062 16.085938 -15.1875 13.695312 -13.882812 C 12.390625 -13.113281 11.273438 -12.421875 10.390625 -11.8125 C 9.503906 -11.203125 8.847656 -10.671875 8.507812 -10.332031 C 8.304688 -10.402344 7.773438 -10.714844 6.882812 -11.171875 C 5.945312 -11.625 5.054688 -12.082031 4.203125 -12.59375 C 3.578125 -12.894531 3.050781 -13.210938 2.613281 -13.535156 C 2.097656 -13.753906 1.824219 -13.960938 1.703125 -14.136719 C 1.378906 -14.382812 1.28125 -14.710938 1.433594 -15.023438 C 1.488281 -15.320312 1.898438 -15.523438 2.550781 -15.714844 C 2.835938 -15.753906 3.457031 -15.84375 4.375 -15.875 C 5.253906 -15.851562 5.878906 -15.890625 6.308594 -15.953125 C 6.789062 -15.972656 7.171875 -16.023438 7.398438 -16.152344 C 7.574219 -16.277344 7.648438 -16.433594 7.574219 -16.617188 Z M 9.242188 -3.390625 L 9.195312 -3.382812 C 8.859375 -3.335938 8.644531 -3.5 8.582031 -3.929688 C 8.535156 -3.921875 8.527344 -3.96875 8.523438 -4.019531 C 8.460938 -4.445312 8.699219 -5.160156 9.246094 -6.113281 C 9.839844 -5.710938 10.191406 -5.273438 10.246094 -4.890625 C 10.273438 -4.703125 10.246094 -4.550781 10.167969 -4.394531 C 9.917969 -3.777344 9.621094 -3.445312 9.242188 -3.390625 Z M 9.242188 -3.390625 "></path></g></g></g></svg> 