<?xml version="1.0" encoding="UTF-8"?> <svg xmlns="http://www.w3.org/2000/svg" xmlns:xlink="http://www.w3.org/1999/xlink" width="500" zoomAndPan="magnify" viewBox="0 0 375 374.999991" height="500" preserveAspectRatio="xMidYMid meet" version="1.0"><defs><clipPath id="id1"><path d="M 245.152344 110 L 374.867188 110 L 374.867188 218 L 245.152344 218 Z M 245.152344 110 " clip-rule="nonzero"></path></clipPath><clipPath id="id2"><path d="M 0.164062 40.546875 L 309.953125 40.546875 L 309.953125 334.515625 L 0.164062 334.515625 Z M 0.164062 40.546875 " clip-rule="nonzero"></path></clipPath></defs><g clip-path="url(#id1)"><path fill="rgb(6.269836%, 5.879211%, 5.099487%)" d="M 367.265625 118.074219 C 361.449219 111 352.183594 106.910156 344.292969 113.136719 C 342.289062 114.71875 340.285156 116.300781 338.277344 117.886719 C 328.3125 125.75 318.351562 133.613281 308.390625 141.480469 C 296.894531 150.554688 285.394531 159.628906 273.890625 168.707031 C 269.96875 171.804688 266.042969 174.902344 262.117188 178.003906 C 260.539062 179.246094 258.140625 180.539062 257.089844 182.335938 C 254.507812 186.75 253.210938 192.460938 251.410156 197.214844 C 249.566406 202.089844 247.71875 206.96875 245.875 211.847656 C 244.882812 214.460938 247.492188 218.105469 250.363281 217.738281 C 260.394531 216.453125 270.429688 215.167969 280.46875 213.882812 C 281.070312 213.808594 281.605469 213.636719 282.085938 213.398438 C 282.652344 213.230469 283.21875 212.945312 283.757812 212.519531 C 300.855469 199.027344 317.949219 185.53125 335.050781 172.035156 C 344.90625 164.257812 354.757812 156.480469 364.609375 148.703125 C 366.507812 147.207031 368.398438 145.710938 370.292969 144.214844 C 379.441406 136.996094 372.984375 125.019531 367.265625 118.074219 " fill-opacity="1" fill-rule="nonzero"></path></g><g clip-path="url(#id2)"><path fill="rgb(6.269836%, 5.879211%, 5.099487%)" d="M 309.355469 215.5625 C 309.355469 209.1875 299.476562 209.1875 299.476562 215.5625 C 299.476562 224.679688 299.476562 233.800781 299.476562 242.921875 C 299.476562 259.800781 285.867188 273.324219 269.082031 273.582031 C 258.246094 273.75 247.390625 273.582031 236.554688 273.582031 C 188.261719 273.582031 139.976562 273.582031 91.6875 273.582031 C 79.882812 273.582031 68.078125 273.582031 56.273438 273.582031 C 53.691406 273.582031 52.191406 275.519531 50.550781 277.164062 C 47.492188 280.222656 44.429688 283.285156 41.371094 286.347656 C 32.53125 295.1875 23.691406 304.03125 14.851562 312.875 C 13.25 314.476562 11.644531 316.078125 10.042969 317.683594 C 10.042969 287.550781 10.042969 257.421875 10.042969 227.292969 C 10.042969 186.859375 10.042969 146.417969 10.042969 105.984375 C 10.042969 98.601562 10.042969 91.21875 10.042969 83.839844 C 10.042969 73.265625 13.285156 64.082031 21.601562 57.09375 C 32.03125 48.324219 48.167969 50.589844 60.882812 50.589844 C 108.300781 50.589844 155.726562 50.589844 203.148438 50.589844 C 221.882812 50.589844 240.613281 50.589844 259.34375 50.589844 C 262.570312 50.589844 265.800781 50.589844 269.027344 50.589844 C 285.328125 50.589844 298.71875 63.695312 299.460938 79.894531 C 300.183594 95.617188 299.476562 111.511719 299.476562 127.253906 C 299.476562 133.625 309.355469 133.625 309.355469 127.253906 C 309.355469 117.976562 309.355469 108.699219 309.355469 99.421875 C 309.355469 89.1875 310.492188 77.96875 307.242188 68.113281 C 301.902344 51.894531 286.042969 40.707031 269.050781 40.707031 C 265.929688 40.707031 262.808594 40.707031 259.6875 40.707031 C 215.316406 40.707031 170.945312 40.707031 126.570312 40.707031 C 104.835938 40.707031 83.097656 40.707031 61.359375 40.707031 C 47.691406 40.707031 33.15625 39.128906 20.707031 45.863281 C 7.796875 52.847656 0.164062 67.085938 0.164062 81.550781 C 0.164062 87.203125 0.164062 92.859375 0.164062 98.515625 C 0.164062 122.570312 0.164062 146.625 0.164062 170.679688 C 0.164062 201.628906 0.164062 232.574219 0.164062 263.519531 C 0.164062 285.550781 0.164062 307.582031 0.164062 329.609375 C 0.164062 333.921875 5.546875 336.15625 8.59375 333.105469 C 25.136719 316.558594 41.679688 300.011719 58.222656 283.464844 C 92.367188 283.464844 126.511719 283.464844 160.660156 283.464844 C 196.769531 283.464844 232.878906 283.464844 268.984375 283.464844 C 288.4375 283.464844 305.519531 269.09375 308.769531 249.90625 C 309.753906 244.078125 309.355469 237.972656 309.355469 232.089844 C 309.355469 226.578125 309.355469 221.070312 309.355469 215.5625 " fill-opacity="1" fill-rule="nonzero"></path></g><path fill="rgb(6.269836%, 5.879211%, 5.099487%)" d="M 253.453125 97.257812 C 217.398438 97.257812 181.34375 97.257812 145.289062 97.257812 C 115.273438 97.257812 85.257812 97.257812 55.242188 97.257812 C 42.503906 97.257812 42.503906 117.023438 55.242188 117.023438 C 91.296875 117.023438 127.347656 117.023438 163.40625 117.023438 C 193.421875 117.023438 223.4375 117.023438 253.453125 117.023438 C 266.195312 117.023438 266.195312 97.257812 253.453125 97.257812 " fill-opacity="1" fill-rule="nonzero"></path><path fill="rgb(6.269836%, 5.879211%, 5.099487%)" d="M 224.871094 207.882812 C 186.527344 207.882812 148.1875 207.882812 109.84375 207.882812 C 91.640625 207.882812 73.445312 207.882812 55.242188 207.882812 C 42.503906 207.882812 42.503906 227.644531 55.242188 227.644531 C 93.585938 227.644531 131.929688 227.644531 170.273438 227.644531 C 188.472656 227.644531 206.675781 227.644531 224.871094 227.644531 C 237.617188 227.644531 237.617188 207.882812 224.871094 207.882812 " fill-opacity="1" fill-rule="nonzero"></path><path fill="rgb(6.269836%, 5.879211%, 5.099487%)" d="M 224.871094 154.039062 C 186.527344 154.039062 148.1875 154.039062 109.84375 154.039062 C 91.640625 154.039062 73.445312 154.039062 55.242188 154.039062 C 42.503906 154.039062 42.503906 173.800781 55.242188 173.800781 C 93.585938 173.800781 131.929688 173.800781 170.273438 173.800781 C 188.472656 173.800781 206.675781 173.800781 224.871094 173.800781 C 237.617188 173.800781 237.617188 154.039062 224.871094 154.039062 " fill-opacity="1" fill-rule="nonzero"></path></svg> 