<?xml version="1.0" encoding="UTF-8"?> <svg xmlns="http://www.w3.org/2000/svg" xmlns:xlink="http://www.w3.org/1999/xlink" width="650" zoomAndPan="magnify" viewBox="0 0 487.5 112.499997" height="150" preserveAspectRatio="xMidYMid meet" version="1.0"><defs><g></g><clipPath id="id1"><path d="M 35 18 L 95 18 L 95 100 L 35 100 Z M 35 18 " clip-rule="nonzero"></path></clipPath><clipPath id="id2"><path d="M 18.113281 30.570312 L 76.4375 5.378906 L 111.707031 87.03125 L 53.382812 112.226562 Z M 18.113281 30.570312 " clip-rule="nonzero"></path></clipPath><clipPath id="id3"><path d="M 18.113281 30.570312 L 76.4375 5.378906 L 111.707031 87.03125 L 53.382812 112.226562 Z M 18.113281 30.570312 " clip-rule="nonzero"></path></clipPath><clipPath id="id4"><path d="M 42 15 L 101 15 L 101 97 L 42 97 Z M 42 15 " clip-rule="nonzero"></path></clipPath><clipPath id="id5"><path d="M 24.835938 27.667969 L 83.160156 2.472656 L 118.433594 84.128906 L 60.109375 109.320312 Z M 24.835938 27.667969 " clip-rule="nonzero"></path></clipPath><clipPath id="id6"><path d="M 24.835938 27.667969 L 83.160156 2.472656 L 118.433594 84.128906 L 60.109375 109.320312 Z M 24.835938 27.667969 " clip-rule="nonzero"></path></clipPath></defs><g clip-path="url(#id1)"><g clip-path="url(#id2)"><g clip-path="url(#id3)"><path fill="rgb(100%, 100%, 100%)" d="M 47.289062 18.007812 L 35.746094 71.398438 L 82.53125 99.597656 L 94.070312 46.207031 Z M 47.289062 18.007812 " fill-opacity="1" fill-rule="nonzero"></path></g></g></g><g clip-path="url(#id4)"><g clip-path="url(#id5)"><g clip-path="url(#id6)"><path fill="rgb(57.649231%, 19.999695%, 91.758728%)" d="M 54.011719 15.101562 L 42.472656 68.492188 L 89.257812 96.691406 L 100.796875 43.300781 Z M 54.011719 15.101562 " fill-opacity="1" fill-rule="nonzero"></path></g></g></g><g fill="rgb(100%, 100%, 100%)" fill-opacity="1"><g transform="translate(88.229665, 93.014741)"><g><path d="M -0.53125 -0.5625 L -0.84375 -0.8125 L -0.78125 -1.046875 L -0.359375 -0.65625 L 0.1875 -0.84375 L 0.125 -0.609375 L -0.25 -0.5 L 0.046875 -0.25 L 0 -0.015625 L -0.421875 -0.421875 L -0.96875 -0.21875 L -0.921875 -0.453125 Z M -0.53125 -0.5625 "></path></g></g></g><g fill="rgb(100%, 100%, 100%)" fill-opacity="1"><g transform="translate(88.441963, 92.022281)"><g><path d="M -0.140625 -0.90625 C -0.046875 -0.875 0.0234375 -0.816406 0.078125 -0.734375 C 0.128906 -0.660156 0.140625 -0.566406 0.109375 -0.453125 C 0.0859375 -0.328125 0.03125 -0.238281 -0.0625 -0.1875 C -0.164062 -0.132812 -0.285156 -0.125 -0.421875 -0.15625 L -0.484375 -0.171875 C -0.578125 -0.191406 -0.65625 -0.222656 -0.71875 -0.265625 C -0.789062 -0.316406 -0.835938 -0.375 -0.859375 -0.4375 C -0.878906 -0.507812 -0.882812 -0.582031 -0.875 -0.65625 C -0.84375 -0.769531 -0.789062 -0.851562 -0.71875 -0.90625 C -0.65625 -0.96875 -0.5625 -0.992188 -0.4375 -0.984375 L -0.484375 -0.78125 C -0.546875 -0.78125 -0.59375 -0.769531 -0.625 -0.75 C -0.664062 -0.726562 -0.695312 -0.6875 -0.71875 -0.625 C -0.726562 -0.550781 -0.710938 -0.492188 -0.671875 -0.453125 C -0.628906 -0.421875 -0.554688 -0.394531 -0.453125 -0.375 L -0.375 -0.359375 C -0.28125 -0.335938 -0.207031 -0.332031 -0.15625 -0.34375 C -0.101562 -0.363281 -0.0703125 -0.410156 -0.0625 -0.484375 C -0.0507812 -0.535156 -0.0507812 -0.578125 -0.0625 -0.609375 C -0.0820312 -0.648438 -0.125 -0.679688 -0.1875 -0.703125 Z M -0.140625 -0.90625 "></path></g></g></g><g fill="rgb(100%, 100%, 100%)" fill-opacity="1"><g transform="translate(88.65976, 91.004116)"><g><path d="M -0.0625 -0.671875 L -0.140625 -0.328125 L 0.046875 -0.21875 L 0 0 L -0.890625 -0.5625 L -0.84375 -0.75 L 0.1875 -0.90625 L 0.140625 -0.6875 Z M -0.265625 -0.421875 L -0.21875 -0.640625 L -0.625 -0.609375 Z M -0.265625 -0.421875 "></path></g></g></g><g fill="rgb(100%, 100%, 100%)" fill-opacity="1"><g transform="translate(88.882915, 89.960905)"><g><path d="M -0.625 -0.984375 L -0.6875 -0.6875 L 0.109375 -0.515625 L 0.0625 -0.328125 L -0.734375 -0.5 L -0.796875 -0.203125 L -0.96875 -0.234375 L -0.796875 -1.015625 Z M -0.625 -0.984375 "></path></g></g></g><g fill="rgb(100%, 100%, 100%)" fill-opacity="1"><g transform="translate(89.09042, 88.990854)"><g><path d="M -0.625 -0.984375 L -0.6875 -0.6875 L 0.109375 -0.515625 L 0.0625 -0.328125 L -0.734375 -0.5 L -0.796875 -0.203125 L -0.96875 -0.234375 L -0.796875 -1.015625 Z M -0.625 -0.984375 "></path></g></g></g><g fill="rgb(100%, 100%, 100%)" fill-opacity="1"><g transform="translate(89.297925, 88.020803)"><g><path d="M -0.53125 -0.5625 L -0.84375 -0.8125 L -0.78125 -1.046875 L -0.359375 -0.65625 L 0.1875 -0.84375 L 0.125 -0.609375 L -0.25 -0.5 L 0.046875 -0.25 L 0 -0.015625 L -0.421875 -0.421875 L -0.96875 -0.21875 L -0.921875 -0.453125 Z M -0.53125 -0.5625 "></path></g></g></g><g fill="rgb(100%, 100%, 100%)" fill-opacity="1"><g transform="translate(89.510224, 87.028343)"><g><path d="M -0.078125 -0.09375 C -0.109375 -0.101562 -0.128906 -0.117188 -0.140625 -0.140625 C -0.160156 -0.171875 -0.164062 -0.203125 -0.15625 -0.234375 C -0.15625 -0.265625 -0.140625 -0.285156 -0.109375 -0.296875 C -0.0859375 -0.316406 -0.0625 -0.320312 -0.03125 -0.3125 C 0 -0.3125 0.0195312 -0.300781 0.03125 -0.28125 C 0.0390625 -0.257812 0.046875 -0.226562 0.046875 -0.1875 C 0.0351562 -0.15625 0.0195312 -0.128906 0 -0.109375 C -0.0195312 -0.0976562 -0.046875 -0.09375 -0.078125 -0.09375 Z M -0.078125 -0.09375 "></path></g></g></g><g fill="rgb(100%, 100%, 100%)" fill-opacity="1"><g transform="translate(89.622986, 86.501201)"><g><path d="M -0.140625 -0.90625 C -0.046875 -0.875 0.0234375 -0.816406 0.078125 -0.734375 C 0.128906 -0.660156 0.140625 -0.566406 0.109375 -0.453125 C 0.0859375 -0.328125 0.03125 -0.238281 -0.0625 -0.1875 C -0.164062 -0.132812 -0.285156 -0.125 -0.421875 -0.15625 L -0.484375 -0.171875 C -0.578125 -0.191406 -0.65625 -0.222656 -0.71875 -0.265625 C -0.789062 -0.316406 -0.835938 -0.375 -0.859375 -0.4375 C -0.878906 -0.507812 -0.882812 -0.582031 -0.875 -0.65625 C -0.84375 -0.769531 -0.789062 -0.851562 -0.71875 -0.90625 C -0.65625 -0.96875 -0.5625 -0.992188 -0.4375 -0.984375 L -0.484375 -0.78125 C -0.546875 -0.78125 -0.59375 -0.769531 -0.625 -0.75 C -0.664062 -0.726562 -0.695312 -0.6875 -0.71875 -0.625 C -0.726562 -0.550781 -0.710938 -0.492188 -0.671875 -0.453125 C -0.628906 -0.421875 -0.554688 -0.394531 -0.453125 -0.375 L -0.375 -0.359375 C -0.28125 -0.335938 -0.207031 -0.332031 -0.15625 -0.34375 C -0.101562 -0.363281 -0.0703125 -0.410156 -0.0625 -0.484375 C -0.0507812 -0.535156 -0.0507812 -0.578125 -0.0625 -0.609375 C -0.0820312 -0.648438 -0.125 -0.679688 -0.1875 -0.703125 Z M -0.140625 -0.90625 "></path></g></g></g><g fill="rgb(100%, 100%, 100%)" fill-opacity="1"><g transform="translate(89.840783, 85.483036)"><g><path d="M -0.265625 -0.96875 C -0.179688 -0.945312 -0.109375 -0.910156 -0.046875 -0.859375 C 0.015625 -0.804688 0.0625 -0.742188 0.09375 -0.671875 C 0.125 -0.609375 0.128906 -0.535156 0.109375 -0.453125 C 0.0976562 -0.378906 0.0625 -0.3125 0 -0.25 C -0.0507812 -0.195312 -0.113281 -0.160156 -0.1875 -0.140625 C -0.257812 -0.128906 -0.34375 -0.132812 -0.4375 -0.15625 L -0.484375 -0.171875 C -0.578125 -0.191406 -0.65625 -0.222656 -0.71875 -0.265625 C -0.789062 -0.316406 -0.835938 -0.375 -0.859375 -0.4375 C -0.878906 -0.507812 -0.878906 -0.582031 -0.859375 -0.65625 C -0.847656 -0.738281 -0.816406 -0.804688 -0.765625 -0.859375 C -0.722656 -0.921875 -0.660156 -0.960938 -0.578125 -0.984375 C -0.492188 -1.003906 -0.40625 -1.003906 -0.3125 -0.984375 Z M -0.359375 -0.78125 C -0.460938 -0.800781 -0.539062 -0.796875 -0.59375 -0.765625 C -0.65625 -0.742188 -0.695312 -0.695312 -0.71875 -0.625 C -0.726562 -0.5625 -0.707031 -0.507812 -0.65625 -0.46875 C -0.613281 -0.425781 -0.539062 -0.394531 -0.4375 -0.375 L -0.390625 -0.359375 C -0.296875 -0.335938 -0.21875 -0.335938 -0.15625 -0.359375 C -0.101562 -0.378906 -0.0703125 -0.421875 -0.0625 -0.484375 C -0.0390625 -0.554688 -0.0507812 -0.613281 -0.09375 -0.65625 C -0.144531 -0.707031 -0.21875 -0.742188 -0.3125 -0.765625 Z M -0.359375 -0.78125 "></path></g></g></g><g fill="rgb(100%, 100%, 100%)" fill-opacity="1"><g transform="translate(90.069013, 84.416098)"><g><path d="M -0.890625 -0.546875 L -0.140625 -0.65625 L -0.796875 -1.03125 L -0.734375 -1.28125 L 0.234375 -1.078125 L 0.1875 -0.890625 L -0.078125 -0.953125 L -0.515625 -1.078125 L 0.140625 -0.65625 L 0.109375 -0.515625 L -0.65625 -0.421875 L -0.203125 -0.34375 L 0.0625 -0.28125 L 0.015625 -0.09375 L -0.953125 -0.296875 Z M -0.890625 -0.546875 "></path></g></g></g><g fill="rgb(100%, 100%, 100%)" fill-opacity="1"><g transform="translate(128.56656, 82.852823)"><g><path d="M 38.640625 0 L 21.34375 0 L 21.34375 -7.546875 L 24.359375 -7.546875 L 18.796875 -19.515625 L 13.234375 -7.546875 L 16.1875 -7.546875 L 16.1875 0 L -0.9375 0 L -0.9375 -7.546875 L 3.65625 -7.546875 L 13.96875 -26.75 L 3.8125 -45.375 L 0 -45.375 L 0 -52.96875 L 16.796875 -52.96875 L 16.796875 -45.375 L 13.390625 -45.375 L 18.796875 -33.640625 L 24.265625 -45.375 L 20.9375 -45.375 L 20.9375 -52.96875 L 37.828125 -52.96875 L 37.828125 -45.375 L 33.734375 -45.375 L 23.625 -26.75 L 33.9375 -7.546875 L 38.640625 -7.546875 Z M 38.640625 0 "></path></g></g></g><g fill="rgb(100%, 100%, 100%)" fill-opacity="1"><g transform="translate(182.254048, 82.852823)"><g><path d="M 38.640625 -16.1875 C 37.992188 -13.59375 37.128906 -11.238281 36.046875 -9.125 C 34.960938 -7.019531 33.640625 -5.222656 32.078125 -3.734375 C 30.523438 -2.242188 28.710938 -1.09375 26.640625 -0.28125 C 24.578125 0.53125 22.203125 0.9375 19.515625 0.9375 C 15.816406 0.9375 12.679688 0.171875 10.109375 -1.359375 C 7.535156 -2.890625 5.429688 -4.929688 3.796875 -7.484375 C 2.160156 -10.046875 0.984375 -12.96875 0.265625 -16.25 C -0.453125 -19.539062 -0.8125 -22.957031 -0.8125 -26.5 C -0.8125 -30.050781 -0.453125 -33.472656 0.265625 -36.765625 C 0.984375 -40.066406 2.144531 -42.976562 3.75 -45.5 C 5.363281 -48.019531 7.414062 -50.039062 9.90625 -51.5625 C 12.394531 -53.09375 15.4375 -53.859375 19.03125 -53.859375 C 20.195312 -53.859375 21.375 -53.707031 22.5625 -53.40625 C 23.757812 -53.113281 24.867188 -52.660156 25.890625 -52.046875 C 26.921875 -51.441406 27.820312 -50.691406 28.59375 -49.796875 C 29.363281 -48.910156 29.910156 -47.882812 30.234375 -46.71875 L 30.234375 -52.96875 L 37.828125 -52.96875 L 37.828125 -32.921875 L 30.234375 -32.921875 C 30.234375 -34.566406 30.03125 -36.191406 29.625 -37.796875 C 29.21875 -39.410156 28.566406 -40.835938 27.671875 -42.078125 C 26.785156 -43.328125 25.664062 -44.34375 24.3125 -45.125 C 22.957031 -45.914062 21.359375 -46.3125 19.515625 -46.3125 C 17.140625 -46.3125 15.191406 -45.726562 13.671875 -44.5625 C 12.160156 -43.40625 10.941406 -41.878906 10.015625 -39.984375 C 9.097656 -38.085938 8.457031 -35.960938 8.09375 -33.609375 C 7.726562 -31.253906 7.546875 -28.882812 7.546875 -26.5 C 7.546875 -24.125 7.726562 -21.742188 8.09375 -19.359375 C 8.457031 -16.972656 9.085938 -14.835938 9.984375 -12.953125 C 10.878906 -11.078125 12.097656 -9.554688 13.640625 -8.390625 C 15.179688 -7.234375 17.140625 -6.65625 19.515625 -6.65625 C 22.953125 -6.65625 25.597656 -7.75 27.453125 -9.9375 C 29.304688 -12.132812 30.789062 -15.085938 31.90625 -18.796875 Z M 38.640625 -16.1875 "></path></g></g></g><g fill="rgb(100%, 100%, 100%)" fill-opacity="1"><g transform="translate(235.941537, 82.852823)"><g><path d="M 31.5 0 L 27.6875 -12.625 L 10.140625 -12.625 L 6.40625 0 L -2.390625 0 L 14.125 -52.96875 L 23.78125 -52.96875 L 40.296875 0 Z M 12.375 -20.046875 L 25.453125 -20.046875 L 18.953125 -41.890625 Z M 12.375 -20.046875 "></path></g></g></g><g fill="rgb(100%, 100%, 100%)" fill-opacity="1"><g transform="translate(289.629016, 82.852823)"><g><path d="M 37.75 -33.640625 L 30.234375 -33.640625 L 30.234375 -45.375 L 23.09375 -45.375 L 23.09375 -7.546875 L 31.5 -7.546875 L 31.5 0 L 6.328125 0 L 6.328125 -7.546875 L 14.6875 -7.546875 L 14.6875 -45.375 L 7.46875 -45.375 L 7.46875 -33.640625 L 0 -33.640625 L 0 -52.96875 L 37.75 -52.96875 Z M 37.75 -33.640625 "></path></g></g></g><g fill="rgb(100%, 100%, 100%)" fill-opacity="1"><g transform="translate(343.316513, 82.852823)"><g><path d="M 37.75 -33.640625 L 30.234375 -33.640625 L 30.234375 -45.375 L 23.09375 -45.375 L 23.09375 -7.546875 L 31.5 -7.546875 L 31.5 0 L 6.328125 0 L 6.328125 -7.546875 L 14.6875 -7.546875 L 14.6875 -45.375 L 7.46875 -45.375 L 7.46875 -33.640625 L 0 -33.640625 L 0 -52.96875 L 37.75 -52.96875 Z M 37.75 -33.640625 "></path></g></g></g><g fill="rgb(100%, 100%, 100%)" fill-opacity="1"><g transform="translate(397.004011, 82.852823)"><g><path d="M 38.640625 0 L 21.34375 0 L 21.34375 -7.546875 L 24.359375 -7.546875 L 18.796875 -19.515625 L 13.234375 -7.546875 L 16.1875 -7.546875 L 16.1875 0 L -0.9375 0 L -0.9375 -7.546875 L 3.65625 -7.546875 L 13.96875 -26.75 L 3.8125 -45.375 L 0 -45.375 L 0 -52.96875 L 16.796875 -52.96875 L 16.796875 -45.375 L 13.390625 -45.375 L 18.796875 -33.640625 L 24.265625 -45.375 L 20.9375 -45.375 L 20.9375 -52.96875 L 37.828125 -52.96875 L 37.828125 -45.375 L 33.734375 -45.375 L 23.625 -26.75 L 33.9375 -7.546875 L 38.640625 -7.546875 Z M 38.640625 0 "></path></g></g></g></svg> 