<?xml version="1.0" encoding="UTF-8"?> <svg xmlns="http://www.w3.org/2000/svg" xmlns:xlink="http://www.w3.org/1999/xlink" width="650" zoomAndPan="magnify" viewBox="0 0 487.5 112.499997" height="150" preserveAspectRatio="xMidYMid meet" version="1.0"><defs><g></g><clipPath id="id1"><path d="M 16 20 L 70 20 L 70 94 L 16 94 Z M 16 20 " clip-rule="nonzero"></path></clipPath><clipPath id="id2"><path d="M 0.832031 31.875 L 53.664062 9.054688 L 85.378906 82.472656 L 32.542969 105.296875 Z M 0.832031 31.875 " clip-rule="nonzero"></path></clipPath><clipPath id="id3"><path d="M 0.832031 31.875 L 53.664062 9.054688 L 85.378906 82.472656 L 32.542969 105.296875 Z M 0.832031 31.875 " clip-rule="nonzero"></path></clipPath><clipPath id="id4"><path d="M 22 17 L 76 17 L 76 92 L 22 92 Z M 22 17 " clip-rule="nonzero"></path></clipPath><clipPath id="id5"><path d="M 6.910156 29.25 L 59.746094 6.425781 L 91.460938 79.847656 L 38.625 102.667969 Z M 6.910156 29.25 " clip-rule="nonzero"></path></clipPath><clipPath id="id6"><path d="M 6.910156 29.25 L 59.746094 6.425781 L 91.460938 79.847656 L 38.625 102.667969 Z M 6.910156 29.25 " clip-rule="nonzero"></path></clipPath></defs><g clip-path="url(#id1)"><g clip-path="url(#id2)"><g clip-path="url(#id3)"><path fill="rgb(100%, 100%, 100%)" d="M 27.261719 20.492188 L 16.6875 68.585938 L 58.949219 93.855469 L 69.523438 45.761719 Z M 27.261719 20.492188 " fill-opacity="1" fill-rule="nonzero"></path></g></g></g><g clip-path="url(#id4)"><g clip-path="url(#id5)"><g clip-path="url(#id6)"><path fill="rgb(57.649231%, 19.999695%, 91.758728%)" d="M 33.339844 17.867188 L 22.769531 65.960938 L 65.03125 91.230469 L 75.601562 43.136719 Z M 33.339844 17.867188 " fill-opacity="1" fill-rule="nonzero"></path></g></g></g><g fill="rgb(100%, 100%, 100%)" fill-opacity="1"><g transform="translate(64.215249, 88.326963)"><g><path d="M -0.484375 -0.5 L -0.75 -0.734375 L -0.71875 -0.953125 L -0.328125 -0.59375 L 0.15625 -0.765625 L 0.125 -0.546875 L -0.234375 -0.4375 L 0.046875 -0.21875 L 0 -0.015625 L -0.375 -0.375 L -0.875 -0.203125 L -0.828125 -0.421875 Z M -0.484375 -0.5 "></path></g></g></g><g fill="rgb(100%, 100%, 100%)" fill-opacity="1"><g transform="translate(64.407169, 87.429767)"><g><path d="M -0.140625 -0.828125 C -0.046875 -0.796875 0.0195312 -0.742188 0.0625 -0.671875 C 0.113281 -0.597656 0.128906 -0.507812 0.109375 -0.40625 C 0.078125 -0.300781 0.0195312 -0.222656 -0.0625 -0.171875 C -0.15625 -0.117188 -0.265625 -0.109375 -0.390625 -0.140625 L -0.4375 -0.140625 C -0.519531 -0.160156 -0.59375 -0.191406 -0.65625 -0.234375 C -0.71875 -0.285156 -0.757812 -0.34375 -0.78125 -0.40625 C -0.8125 -0.46875 -0.816406 -0.53125 -0.796875 -0.59375 C -0.773438 -0.695312 -0.726562 -0.773438 -0.65625 -0.828125 C -0.59375 -0.878906 -0.515625 -0.898438 -0.421875 -0.890625 L -0.453125 -0.703125 C -0.503906 -0.710938 -0.546875 -0.703125 -0.578125 -0.671875 C -0.609375 -0.648438 -0.628906 -0.613281 -0.640625 -0.5625 C -0.660156 -0.507812 -0.648438 -0.460938 -0.609375 -0.421875 C -0.578125 -0.378906 -0.515625 -0.347656 -0.421875 -0.328125 L -0.359375 -0.328125 C -0.265625 -0.304688 -0.191406 -0.304688 -0.140625 -0.328125 C -0.0976562 -0.347656 -0.0664062 -0.382812 -0.046875 -0.4375 C -0.0351562 -0.488281 -0.0390625 -0.53125 -0.0625 -0.5625 C -0.0820312 -0.601562 -0.117188 -0.628906 -0.171875 -0.640625 Z M -0.140625 -0.828125 "></path></g></g></g><g fill="rgb(100%, 100%, 100%)" fill-opacity="1"><g transform="translate(64.60406, 86.509334)"><g><path d="M -0.0625 -0.609375 L -0.125 -0.3125 L 0.046875 -0.203125 L 0 0 L -0.8125 -0.515625 L -0.765625 -0.671875 L 0.171875 -0.828125 L 0.140625 -0.625 Z M -0.265625 -0.375 L -0.21875 -0.578125 L -0.5625 -0.546875 Z M -0.265625 -0.375 "></path></g></g></g><g fill="rgb(100%, 100%, 100%)" fill-opacity="1"><g transform="translate(64.805795, 85.566259)"><g><path d="M -0.5625 -0.890625 L -0.625 -0.609375 L 0.09375 -0.453125 L 0.0625 -0.296875 L -0.65625 -0.453125 L -0.71875 -0.1875 L -0.875 -0.21875 L -0.71875 -0.921875 Z M -0.5625 -0.890625 "></path></g></g></g><g fill="rgb(100%, 100%, 100%)" fill-opacity="1"><g transform="translate(64.993382, 84.689322)"><g><path d="M -0.5625 -0.890625 L -0.625 -0.609375 L 0.09375 -0.453125 L 0.0625 -0.296875 L -0.65625 -0.453125 L -0.71875 -0.1875 L -0.875 -0.21875 L -0.71875 -0.921875 Z M -0.5625 -0.890625 "></path></g></g></g><g fill="rgb(100%, 100%, 100%)" fill-opacity="1"><g transform="translate(65.180969, 83.812384)"><g><path d="M -0.484375 -0.5 L -0.75 -0.734375 L -0.71875 -0.953125 L -0.328125 -0.59375 L 0.15625 -0.765625 L 0.125 -0.546875 L -0.234375 -0.4375 L 0.046875 -0.21875 L 0 -0.015625 L -0.375 -0.375 L -0.875 -0.203125 L -0.828125 -0.421875 Z M -0.484375 -0.5 "></path></g></g></g><g fill="rgb(100%, 100%, 100%)" fill-opacity="1"><g transform="translate(65.372889, 82.915188)"><g><path d="M -0.078125 -0.09375 C -0.0976562 -0.101562 -0.113281 -0.117188 -0.125 -0.140625 C -0.144531 -0.171875 -0.15625 -0.195312 -0.15625 -0.21875 C -0.144531 -0.25 -0.125 -0.269531 -0.09375 -0.28125 C -0.0703125 -0.300781 -0.0507812 -0.304688 -0.03125 -0.296875 C 0 -0.296875 0.0195312 -0.28125 0.03125 -0.25 C 0.0390625 -0.226562 0.0390625 -0.203125 0.03125 -0.171875 C 0.03125 -0.148438 0.0195312 -0.128906 0 -0.109375 C -0.0195312 -0.0976562 -0.046875 -0.09375 -0.078125 -0.09375 Z M -0.078125 -0.09375 "></path></g></g></g><g fill="rgb(100%, 100%, 100%)" fill-opacity="1"><g transform="translate(65.474827, 82.438646)"><g><path d="M -0.140625 -0.828125 C -0.046875 -0.796875 0.0195312 -0.742188 0.0625 -0.671875 C 0.113281 -0.597656 0.128906 -0.507812 0.109375 -0.40625 C 0.078125 -0.300781 0.0195312 -0.222656 -0.0625 -0.171875 C -0.15625 -0.117188 -0.265625 -0.109375 -0.390625 -0.140625 L -0.4375 -0.140625 C -0.519531 -0.160156 -0.59375 -0.191406 -0.65625 -0.234375 C -0.71875 -0.285156 -0.757812 -0.34375 -0.78125 -0.40625 C -0.8125 -0.46875 -0.816406 -0.53125 -0.796875 -0.59375 C -0.773438 -0.695312 -0.726562 -0.773438 -0.65625 -0.828125 C -0.59375 -0.878906 -0.515625 -0.898438 -0.421875 -0.890625 L -0.453125 -0.703125 C -0.503906 -0.710938 -0.546875 -0.703125 -0.578125 -0.671875 C -0.609375 -0.648438 -0.628906 -0.613281 -0.640625 -0.5625 C -0.660156 -0.507812 -0.648438 -0.460938 -0.609375 -0.421875 C -0.578125 -0.378906 -0.515625 -0.347656 -0.421875 -0.328125 L -0.359375 -0.328125 C -0.265625 -0.304688 -0.191406 -0.304688 -0.140625 -0.328125 C -0.0976562 -0.347656 -0.0664062 -0.382812 -0.046875 -0.4375 C -0.0351562 -0.488281 -0.0390625 -0.53125 -0.0625 -0.5625 C -0.0820312 -0.601562 -0.117188 -0.628906 -0.171875 -0.640625 Z M -0.140625 -0.828125 "></path></g></g></g><g fill="rgb(100%, 100%, 100%)" fill-opacity="1"><g transform="translate(65.671718, 81.518213)"><g><path d="M -0.234375 -0.890625 C -0.160156 -0.867188 -0.09375 -0.832031 -0.03125 -0.78125 C 0.03125 -0.738281 0.0703125 -0.6875 0.09375 -0.625 C 0.113281 -0.5625 0.117188 -0.492188 0.109375 -0.421875 C 0.0859375 -0.359375 0.0507812 -0.296875 0 -0.234375 C -0.0390625 -0.179688 -0.0976562 -0.144531 -0.171875 -0.125 C -0.242188 -0.113281 -0.316406 -0.117188 -0.390625 -0.140625 L -0.4375 -0.140625 C -0.519531 -0.160156 -0.59375 -0.191406 -0.65625 -0.234375 C -0.71875 -0.285156 -0.757812 -0.34375 -0.78125 -0.40625 C -0.8125 -0.46875 -0.816406 -0.535156 -0.796875 -0.609375 C -0.785156 -0.679688 -0.753906 -0.742188 -0.703125 -0.796875 C -0.648438 -0.847656 -0.585938 -0.878906 -0.515625 -0.890625 C -0.441406 -0.910156 -0.363281 -0.910156 -0.28125 -0.890625 Z M -0.328125 -0.703125 C -0.421875 -0.722656 -0.492188 -0.722656 -0.546875 -0.703125 C -0.597656 -0.679688 -0.628906 -0.640625 -0.640625 -0.578125 C -0.648438 -0.523438 -0.632812 -0.472656 -0.59375 -0.421875 C -0.5625 -0.378906 -0.5 -0.347656 -0.40625 -0.328125 L -0.359375 -0.328125 C -0.273438 -0.304688 -0.203125 -0.304688 -0.140625 -0.328125 C -0.0859375 -0.359375 -0.0546875 -0.398438 -0.046875 -0.453125 C -0.0351562 -0.515625 -0.0507812 -0.566406 -0.09375 -0.609375 C -0.132812 -0.648438 -0.195312 -0.679688 -0.28125 -0.703125 Z M -0.328125 -0.703125 "></path></g></g></g><g fill="rgb(100%, 100%, 100%)" fill-opacity="1"><g transform="translate(65.878041, 80.553688)"><g><path d="M -0.8125 -0.5 L -0.140625 -0.578125 L -0.71875 -0.953125 L -0.65625 -1.1875 L 0.21875 -1 L 0.171875 -0.8125 L -0.078125 -0.859375 L -0.46875 -0.96875 L 0.125 -0.59375 L 0.09375 -0.46875 L -0.59375 -0.390625 L -0.1875 -0.3125 L 0.0625 -0.265625 L 0.015625 -0.078125 L -0.859375 -0.265625 Z M -0.8125 -0.5 "></path></g></g></g><g fill="rgb(100%, 100%, 100%)" fill-opacity="1"><g transform="translate(94.312691, 74.482571)"><g><path d="M 53.070312 -35.785156 C 49.753906 -39.394531 43.351562 -44.574219 37.707031 -47.832031 L 32.644531 -44.109375 C 34.621094 -42.945312 36.660156 -41.546875 38.578125 -40.035156 L 19.433594 -39.453125 C 22.695312 -41.546875 25.835938 -43.816406 28.6875 -46.203125 L 22.226562 -49.636719 C 18.445312 -45.5625 12.800781 -41.953125 10.941406 -40.90625 C 9.253906 -39.859375 7.914062 -39.160156 6.574219 -38.929688 C 7.273438 -37.125 8.320312 -33.867188 8.613281 -32.46875 C 11.289062 -33.402344 14.953125 -33.460938 44.921875 -34.738281 C 46.085938 -33.574219 47.132812 -32.46875 47.949219 -31.480469 Z M 40.964844 -20.773438 L 16.757812 -20.773438 L 16.757812 -25.429688 L 40.964844 -25.429688 Z M 47.832031 -30.957031 L 10.300781 -30.957031 L 10.300781 -15.246094 L 25.777344 -15.246094 L 22.34375 -12.800781 C 25.71875 -10.183594 30.140625 -6.515625 32.121094 -4.132812 L 37.242188 -8.148438 C 35.261719 -10.125 31.714844 -13.035156 28.628906 -15.246094 L 47.832031 -15.246094 Z M 8.496094 3.957031 C 10.125 0.40625 11.8125 -5.121094 12.917969 -9.195312 L 6.984375 -11.578125 C 5.992188 -7.390625 4.074219 -2.386719 2.210938 1.105469 Z M 25.488281 -1.804688 C 21.820312 -1.804688 21.179688 -2.09375 21.179688 -3.722656 L 21.179688 -11.054688 L 14.316406 -11.054688 L 14.316406 -3.664062 C 14.316406 2.445312 16.410156 4.304688 24.90625 4.304688 L 36.71875 4.304688 C 43.058594 4.304688 45.097656 2.617188 46.027344 -4.246094 C 44.109375 -4.539062 41.199219 -5.585938 39.742188 -6.574219 C 39.394531 -2.445312 38.871094 -1.804688 36.136719 -1.804688 Z M 44.109375 -9.777344 C 46.433594 -5.644531 49.054688 -0.117188 50.101562 3.199219 L 56.617188 0.464844 C 55.339844 -2.910156 52.546875 -8.148438 50.160156 -12.160156 Z M 44.109375 -9.777344 "></path></g></g></g><g fill="rgb(100%, 100%, 100%)" fill-opacity="1"><g transform="translate(158.315671, 74.482571)"><g><path d="M 6.691406 -20.890625 C 8.089844 -25.488281 9.078125 -32.644531 9.308594 -37.941406 L 4.015625 -38.636719 C 3.664062 -33.574219 2.617188 -26.882812 1.222656 -22.867188 Z M 23.335938 -32.878906 C 22.636719 -35.089844 20.949219 -38.578125 19.492188 -41.199219 L 16.003906 -39.570312 L 16.003906 -49.285156 L 9.308594 -49.285156 L 9.308594 5.003906 L 16.003906 5.003906 L 16.003906 -37.125 C 17.164062 -34.855469 18.214844 -32.179688 18.679688 -30.492188 Z M 30.839844 -8.03125 L 30.839844 -10.359375 L 46.203125 -10.359375 L 46.203125 -8.03125 Z M 46.203125 -17.339844 L 46.203125 -14.898438 L 30.839844 -14.898438 L 30.839844 -17.339844 Z M 52.835938 -22.226562 L 24.207031 -22.226562 L 24.207031 5.121094 L 30.839844 5.121094 L 30.839844 -3.492188 L 46.203125 -3.492188 L 46.203125 -1.28125 C 46.203125 -0.699219 45.96875 -0.523438 45.273438 -0.464844 C 44.632812 -0.464844 42.421875 -0.40625 40.382812 -0.523438 C 41.140625 1.046875 41.953125 3.375 42.1875 5.121094 C 45.796875 5.121094 48.472656 5.0625 50.390625 4.132812 C 52.3125 3.199219 52.835938 1.6875 52.835938 -1.28125 Z M 39.101562 -32.585938 L 39.101562 -29.445312 L 28.976562 -29.445312 C 30.492188 -31.191406 31.828125 -33.226562 33.050781 -35.320312 L 33.050781 -32.585938 Z M 55.570312 -39.917969 L 55.570312 -45.097656 L 36.835938 -45.097656 C 37.125 -46.203125 37.414062 -47.308594 37.648438 -48.355469 L 31.304688 -49.285156 C 31.015625 -47.890625 30.664062 -46.433594 30.257812 -45.097656 L 21.414062 -45.097656 L 21.414062 -39.917969 L 28.339844 -39.917969 C 26.011719 -35.03125 22.695312 -31.191406 18.214844 -28.570312 C 19.492188 -27.523438 21.878906 -25.136719 22.753906 -23.914062 C 24.964844 -25.429688 26.941406 -27.117188 28.746094 -29.152344 L 28.746094 -24.613281 L 55.164062 -24.613281 L 55.164062 -29.445312 L 45.386719 -29.445312 L 45.386719 -32.585938 L 53.011719 -32.585938 L 53.011719 -37.414062 L 34.097656 -37.414062 C 34.507812 -38.230469 34.855469 -39.046875 35.203125 -39.917969 Z M 55.570312 -39.917969 "></path></g></g></g><g fill="rgb(100%, 100%, 100%)" fill-opacity="1"><g transform="translate(222.31865, 74.482571)"><g><path d="M 54.929688 -31.773438 C 52.023438 -33.867188 44.863281 -37.765625 40.734375 -39.570312 L 37.007812 -33.867188 C 40.964844 -32.121094 47.539062 -28.339844 50.859375 -25.660156 Z M 33.226562 -40.617188 C 30.957031 -39.917969 28.28125 -39.277344 25.488281 -38.8125 C 26.300781 -41.898438 27 -44.804688 27.464844 -46.667969 L 19.492188 -47.484375 C 19.378906 -44.515625 18.738281 -41.023438 17.921875 -37.824219 C 16.175781 -37.707031 14.429688 -37.648438 12.742188 -37.648438 C 10.648438 -37.648438 7.566406 -37.765625 5.0625 -38.054688 L 5.585938 -31.304688 C 8.089844 -31.191406 10.414062 -31.132812 12.800781 -31.132812 C 13.789062 -31.132812 14.78125 -31.132812 15.769531 -31.191406 C 13.210938 -24.964844 8.671875 -16.46875 4.015625 -10.824219 L 11.054688 -7.273438 C 15.710938 -13.847656 20.65625 -23.859375 23.390625 -31.945312 C 27.234375 -32.46875 30.78125 -33.226562 33.402344 -33.925781 Z M 34.621094 -8.554688 C 34.621094 -5.46875 33.34375 -3.199219 29.445312 -3.199219 C 26.300781 -3.199219 24.496094 -4.65625 24.496094 -6.808594 C 24.496094 -8.84375 26.652344 -10.242188 29.96875 -10.242188 C 31.597656 -10.242188 33.109375 -10.007812 34.621094 -9.660156 Z M 33.691406 -28.746094 C 33.867188 -25.253906 34.15625 -20.191406 34.332031 -15.886719 C 33.109375 -16.003906 31.773438 -16.117188 30.433594 -16.117188 C 22.402344 -16.117188 17.691406 -11.753906 17.691406 -6.109375 C 17.691406 0.234375 23.335938 3.433594 30.492188 3.433594 C 38.695312 3.433594 41.605469 -0.757812 41.605469 -6.109375 L 41.605469 -6.632812 C 44.746094 -4.714844 47.367188 -2.386719 49.402344 -0.523438 L 53.242188 -6.691406 C 50.335938 -9.308594 46.261719 -12.21875 41.316406 -14.082031 C 41.140625 -16.933594 41.023438 -19.726562 40.964844 -21.355469 C 40.90625 -23.914062 40.789062 -26.300781 40.964844 -28.746094 Z M 33.691406 -28.746094 "></path></g></g></g><g fill="rgb(100%, 100%, 100%)" fill-opacity="1"><g transform="translate(286.321636, 74.482571)"><g><path d="M 20.597656 -42.128906 L 20.597656 -39.160156 L 11.464844 -39.160156 L 11.464844 -42.128906 Z M 11.464844 -31.480469 L 11.464844 -34.679688 L 20.597656 -34.679688 L 20.597656 -31.480469 Z M 27.117188 -26.476562 L 27.117188 -47.074219 L 4.714844 -47.074219 L 4.714844 5.0625 L 11.464844 5.0625 L 11.464844 -26.476562 Z M 26.183594 -13.675781 L 26.183594 -18.039062 L 31.597656 -18.039062 L 31.597656 -13.675781 Z M 44.050781 -8.03125 L 44.050781 -13.675781 L 37.648438 -13.675781 L 37.648438 -18.039062 L 43.117188 -18.039062 L 43.117188 -23.507812 L 15.011719 -23.507812 L 15.011719 -18.039062 L 20.308594 -18.039062 L 20.308594 -13.675781 L 14.199219 -13.675781 L 14.199219 -8.03125 L 20.074219 -8.03125 C 19.492188 -5.0625 17.863281 -1.28125 14.140625 1.046875 C 15.476562 1.976562 17.574219 3.78125 18.5625 5.003906 C 23.507812 1.628906 25.429688 -4.015625 26.011719 -8.03125 L 31.597656 -8.03125 L 31.597656 3.957031 L 37.648438 3.957031 L 37.648438 -8.03125 Z M 37.53125 -31.363281 L 37.53125 -34.679688 L 46.960938 -34.679688 L 46.960938 -31.363281 Z M 46.960938 -42.128906 L 46.960938 -39.160156 L 37.53125 -39.160156 L 37.53125 -42.128906 Z M 53.765625 -47.074219 L 30.957031 -47.074219 L 30.957031 -26.359375 L 46.960938 -26.359375 L 46.960938 -3.085938 C 46.960938 -2.269531 46.667969 -1.921875 45.738281 -1.921875 C 44.863281 -1.863281 42.011719 -1.863281 39.394531 -1.976562 C 40.324219 -0.175781 41.257812 2.96875 41.488281 4.886719 C 45.910156 4.886719 48.9375 4.714844 51.03125 3.550781 C 53.128906 2.445312 53.765625 0.523438 53.765625 -3.027344 Z M 53.765625 -47.074219 "></path></g></g></g><g fill="rgb(100%, 100%, 100%)" fill-opacity="1"><g transform="translate(350.32461, 74.482571)"><g><path d="M 32.410156 -16.527344 L 25.253906 -16.527344 L 25.253906 -23.101562 L 32.410156 -23.101562 Z M 44.921875 -23.101562 L 44.921875 -24.964844 C 47.132812 -23.277344 49.519531 -21.820312 52.078125 -20.597656 C 53.128906 -22.460938 55.222656 -25.195312 56.851562 -26.59375 C 53.535156 -27.929688 50.507812 -29.734375 47.832031 -31.886719 C 50.335938 -33.691406 53.128906 -36.019531 55.511719 -38.171875 L 50.449219 -41.78125 C 48.820312 -39.800781 46.261719 -37.472656 43.933594 -35.496094 C 43.003906 -36.484375 42.128906 -37.472656 41.316406 -38.523438 C 43.699219 -40.265625 46.378906 -42.535156 48.761719 -44.691406 L 43.527344 -48.414062 C 42.1875 -46.785156 40.265625 -44.746094 38.347656 -43.003906 C 37.183594 -44.980469 36.253906 -47.074219 35.4375 -49.226562 L 29.210938 -47.484375 C 31.773438 -40.617188 35.261719 -34.566406 39.800781 -29.675781 L 18.738281 -29.675781 C 22.867188 -33.867188 26.183594 -39.046875 28.222656 -45.15625 L 23.566406 -47.308594 L 22.34375 -47.074219 L 7.15625 -47.074219 L 7.15625 -41.140625 L 19.027344 -41.140625 C 17.980469 -39.277344 16.757812 -37.53125 15.363281 -35.902344 C 13.734375 -37.300781 11.523438 -38.988281 9.777344 -40.210938 L 5.410156 -36.601562 C 7.332031 -35.148438 9.660156 -33.167969 11.171875 -31.65625 C 8.203125 -29.09375 4.886719 -27.058594 1.511719 -25.660156 C 2.851562 -24.382812 4.773438 -21.996094 5.703125 -20.425781 C 8.378906 -21.703125 10.996094 -23.21875 13.441406 -25.023438 L 13.441406 -23.101562 L 18.328125 -23.101562 L 18.328125 -16.527344 L 5.878906 -16.527344 L 5.878906 -10.183594 L 17.398438 -10.183594 C 15.945312 -6.285156 12.453125 -2.675781 4.421875 -0.234375 C 5.878906 1.046875 7.972656 3.722656 8.84375 5.296875 C 19.609375 1.6875 23.449219 -4.074219 24.730469 -10.183594 L 32.410156 -10.183594 L 32.410156 -3.839844 C 32.410156 2.617188 33.984375 4.65625 40.265625 4.65625 L 46.609375 4.65625 C 51.730469 4.65625 53.535156 2.328125 54.234375 -5.351562 C 52.253906 -5.761719 49.460938 -6.925781 48.007812 -8.089844 C 47.773438 -2.617188 47.484375 -1.453125 45.96875 -1.453125 L 41.488281 -1.453125 C 39.859375 -1.453125 39.628906 -1.804688 39.628906 -3.898438 L 39.628906 -10.183594 L 52.023438 -10.183594 L 52.023438 -16.527344 L 39.628906 -16.527344 L 39.628906 -23.101562 Z M 44.921875 -23.101562 "></path></g></g></g><g fill="rgb(100%, 100%, 100%)" fill-opacity="1"><g transform="translate(414.327583, 74.482571)"><g><path d="M 28.570312 -37.007812 L 38.054688 -37.007812 C 36.078125 -35.148438 33.984375 -33.402344 31.773438 -31.714844 L 28.570312 -31.714844 Z M 41.257812 -11.578125 L 21.238281 -11.578125 L 21.238281 -15.304688 L 41.257812 -15.304688 Z M 21.238281 -2.386719 L 21.238281 -6.34375 L 41.257812 -6.34375 L 41.257812 -2.386719 Z M 55.164062 -25.601562 L 55.164062 -31.714844 L 41.664062 -31.714844 C 45.910156 -35.613281 49.808594 -39.917969 53.128906 -44.515625 L 47.191406 -47.539062 C 45.386719 -44.980469 43.410156 -42.535156 41.199219 -40.152344 L 41.199219 -43.003906 L 28.570312 -43.003906 L 28.570312 -49.285156 L 21.703125 -49.285156 L 21.703125 -43.003906 L 8.03125 -43.003906 L 8.03125 -37.007812 L 21.703125 -37.007812 L 21.703125 -31.714844 L 3.027344 -31.714844 L 3.027344 -25.601562 L 22.808594 -25.601562 C 16.117188 -21.648438 8.785156 -18.328125 1.164062 -15.945312 C 2.503906 -14.546875 4.539062 -11.753906 5.410156 -10.242188 C 8.378906 -11.347656 11.40625 -12.628906 14.316406 -13.90625 L 14.316406 5.121094 L 21.238281 5.121094 L 21.238281 3.375 L 41.257812 3.375 L 41.257812 4.886719 L 48.472656 4.886719 L 48.472656 -20.949219 L 27.347656 -20.949219 C 29.734375 -22.460938 31.945312 -23.972656 34.214844 -25.601562 Z M 55.164062 -25.601562 "></path></g></g></g></svg> 