<?xml version="1.0" encoding="UTF-8"?> <svg xmlns="http://www.w3.org/2000/svg" xmlns:xlink="http://www.w3.org/1999/xlink" width="650" zoomAndPan="magnify" viewBox="0 0 487.5 112.499997" height="150" preserveAspectRatio="xMidYMid meet" version="1.0"><defs><g><g id="id1"></g></g></defs><g fill="rgb(100%, 100%, 100%)" fill-opacity="1"><g transform="translate(12.041361, 80.012866)"><g><path d="M 41.96875 0 L 28.234375 0 L 20.984375 -9.3125 L 13.734375 0 L 0 0 L 14.046875 -17.203125 L 1.984375 -32.921875 L 15.265625 -32.921875 L 20.984375 -25.28125 L 26.703125 -32.921875 L 39.984375 -32.921875 L 27.921875 -17.203125 Z M 41.96875 0 "></path></g></g></g><g fill="rgb(100%, 100%, 100%)" fill-opacity="1"><g transform="translate(54.001916, 80.012866)"><g><path d="M 32.015625 -10.90625 C 33.859375 -10.90625 35.644531 -11.179688 37.375 -11.734375 C 39.113281 -12.296875 40.390625 -12.832031 41.203125 -13.34375 L 42.421875 -14.1875 L 47.546875 -3.921875 C 47.378906 -3.785156 47.144531 -3.609375 46.84375 -3.390625 C 46.539062 -3.179688 45.84375 -2.785156 44.75 -2.203125 C 43.664062 -1.628906 42.503906 -1.128906 41.265625 -0.703125 C 40.023438 -0.273438 38.398438 0.109375 36.390625 0.453125 C 34.378906 0.796875 32.300781 0.96875 30.15625 0.96875 C 25.238281 0.96875 20.578125 -0.238281 16.171875 -2.65625 C 11.765625 -5.070312 8.210938 -8.398438 5.515625 -12.640625 C 2.816406 -16.878906 1.46875 -21.457031 1.46875 -26.375 C 1.46875 -30.09375 2.257812 -33.660156 3.84375 -37.078125 C 5.425781 -40.503906 7.535156 -43.4375 10.171875 -45.875 C 12.804688 -48.320312 15.875 -50.269531 19.375 -51.71875 C 22.882812 -53.175781 26.476562 -53.90625 30.15625 -53.90625 C 33.582031 -53.90625 36.738281 -53.5 39.625 -52.6875 C 42.507812 -51.875 44.550781 -51.0625 45.75 -50.25 L 47.546875 -49.03125 L 42.421875 -38.765625 C 42.117188 -39.015625 41.664062 -39.320312 41.0625 -39.6875 C 40.46875 -40.050781 39.269531 -40.53125 37.46875 -41.125 C 35.675781 -41.726562 33.859375 -42.03125 32.015625 -42.03125 C 29.109375 -42.03125 26.5 -41.554688 24.1875 -40.609375 C 21.882812 -39.671875 20.054688 -38.429688 18.703125 -36.890625 C 17.359375 -35.359375 16.332031 -33.703125 15.625 -31.921875 C 14.914062 -30.148438 14.5625 -28.34375 14.5625 -26.5 C 14.5625 -22.476562 16.066406 -18.875 19.078125 -15.6875 C 22.097656 -12.5 26.410156 -10.90625 32.015625 -10.90625 Z M 32.015625 -10.90625 "></path></g></g></g><g fill="rgb(100%, 100%, 100%)" fill-opacity="1"><g transform="translate(102.314295, 80.012866)"><g><path d="M 30.734375 -52.9375 L 52.109375 0 L 39.140625 0 L 35.234375 -10.59375 L 15.078125 -10.59375 L 11.171875 0 L -1.796875 0 L 19.578125 -52.9375 Z M 31.125 -21.171875 L 25.21875 -36.578125 L 25.09375 -36.578125 L 19.1875 -21.171875 Z M 31.125 -21.171875 "></path></g></g></g><g fill="rgb(100%, 100%, 100%)" fill-opacity="1"><g transform="translate(152.61563, 80.012866)"><g><path d="M 0.515625 -42.359375 L 0.515625 -52.9375 L 37.734375 -52.9375 L 37.734375 -42.359375 L 25.15625 -42.359375 L 25.15625 0 L 13.09375 0 L 13.09375 -42.359375 Z M 0.515625 -42.359375 "></path></g></g></g><g fill="rgb(100%, 100%, 100%)" fill-opacity="1"><g transform="translate(190.854916, 80.012866)"><g><path d="M 0.515625 -42.359375 L 0.515625 -52.9375 L 37.734375 -52.9375 L 37.734375 -42.359375 L 25.15625 -42.359375 L 25.15625 0 L 13.09375 0 L 13.09375 -42.359375 Z M 0.515625 -42.359375 "></path></g></g></g><g fill="rgb(100%, 100%, 100%)" fill-opacity="1"><g transform="translate(229.094201, 80.012866)"><g><path d="M 53.390625 0 L 37.796875 0 L 25.28125 -18.03125 L 12.765625 0 L -2.1875 0 L 17.84375 -28.5 L 1.15625 -52.9375 L 15.53125 -52.9375 L 25.28125 -38.5 L 35.03125 -52.9375 L 50.046875 -52.9375 L 32.734375 -28.5 Z M 53.390625 0 "></path></g></g></g><g fill="rgb(100%, 100%, 100%)" fill-opacity="1"><g transform="translate(280.29377, 80.012866)"><g><path d="M 11.171875 -13.734375 C 13.222656 -13.734375 14.960938 -13.015625 16.390625 -11.578125 C 17.828125 -10.148438 18.546875 -8.410156 18.546875 -6.359375 C 18.546875 -4.347656 17.828125 -2.625 16.390625 -1.1875 C 14.960938 0.25 13.222656 0.96875 11.171875 0.96875 C 9.160156 0.96875 7.4375 0.25 6 -1.1875 C 4.5625 -2.625 3.84375 -4.347656 3.84375 -6.359375 C 3.84375 -8.410156 4.5625 -10.148438 6 -11.578125 C 7.4375 -13.015625 9.160156 -13.734375 11.171875 -13.734375 Z M 11.171875 -13.734375 "></path></g></g></g><g fill="rgb(100%, 100%, 100%)" fill-opacity="1"><g transform="translate(302.685574, 80.012866)"><g><path d="M 32.015625 -10.90625 C 33.859375 -10.90625 35.644531 -11.179688 37.375 -11.734375 C 39.113281 -12.296875 40.390625 -12.832031 41.203125 -13.34375 L 42.421875 -14.1875 L 47.546875 -3.921875 C 47.378906 -3.785156 47.144531 -3.609375 46.84375 -3.390625 C 46.539062 -3.179688 45.84375 -2.785156 44.75 -2.203125 C 43.664062 -1.628906 42.503906 -1.128906 41.265625 -0.703125 C 40.023438 -0.273438 38.398438 0.109375 36.390625 0.453125 C 34.378906 0.796875 32.300781 0.96875 30.15625 0.96875 C 25.238281 0.96875 20.578125 -0.238281 16.171875 -2.65625 C 11.765625 -5.070312 8.210938 -8.398438 5.515625 -12.640625 C 2.816406 -16.878906 1.46875 -21.457031 1.46875 -26.375 C 1.46875 -30.09375 2.257812 -33.660156 3.84375 -37.078125 C 5.425781 -40.503906 7.535156 -43.4375 10.171875 -45.875 C 12.804688 -48.320312 15.875 -50.269531 19.375 -51.71875 C 22.882812 -53.175781 26.476562 -53.90625 30.15625 -53.90625 C 33.582031 -53.90625 36.738281 -53.5 39.625 -52.6875 C 42.507812 -51.875 44.550781 -51.0625 45.75 -50.25 L 47.546875 -49.03125 L 42.421875 -38.765625 C 42.117188 -39.015625 41.664062 -39.320312 41.0625 -39.6875 C 40.46875 -40.050781 39.269531 -40.53125 37.46875 -41.125 C 35.675781 -41.726562 33.859375 -42.03125 32.015625 -42.03125 C 29.109375 -42.03125 26.5 -41.554688 24.1875 -40.609375 C 21.882812 -39.671875 20.054688 -38.429688 18.703125 -36.890625 C 17.359375 -35.359375 16.332031 -33.703125 15.625 -31.921875 C 14.914062 -30.148438 14.5625 -28.34375 14.5625 -26.5 C 14.5625 -22.476562 16.066406 -18.875 19.078125 -15.6875 C 22.097656 -12.5 26.410156 -10.90625 32.015625 -10.90625 Z M 32.015625 -10.90625 "></path></g></g></g><g fill="rgb(100%, 100%, 100%)" fill-opacity="1"><g transform="translate(350.997962, 80.012866)"><g><path d="M 1.46875 -26.5 C 1.46875 -34.15625 4.078125 -40.632812 9.296875 -45.9375 C 14.523438 -51.25 20.816406 -53.90625 28.171875 -53.90625 C 35.566406 -53.90625 41.851562 -51.257812 47.03125 -45.96875 C 52.207031 -40.6875 54.796875 -34.195312 54.796875 -26.5 C 54.796875 -18.757812 52.25 -12.242188 47.15625 -6.953125 C 42.070312 -1.671875 35.742188 0.96875 28.171875 0.96875 C 20.429688 0.96875 14.046875 -1.648438 9.015625 -6.890625 C 3.984375 -12.140625 1.46875 -18.675781 1.46875 -26.5 Z M 14.5 -26.5 C 14.5 -23.71875 14.925781 -21.179688 15.78125 -18.890625 C 16.632812 -16.609375 18.128906 -14.675781 20.265625 -13.09375 C 22.410156 -11.507812 25.046875 -10.71875 28.171875 -10.71875 C 32.660156 -10.71875 36.050781 -12.253906 38.34375 -15.328125 C 40.632812 -18.410156 41.78125 -22.132812 41.78125 -26.5 C 41.78125 -30.820312 40.613281 -34.535156 38.28125 -37.640625 C 35.945312 -40.742188 32.578125 -42.296875 28.171875 -42.296875 C 23.804688 -42.296875 20.4375 -40.742188 18.0625 -37.640625 C 15.6875 -34.535156 14.5 -30.820312 14.5 -26.5 Z M 14.5 -26.5 "></path></g></g></g><g fill="rgb(100%, 100%, 100%)" fill-opacity="1"><g transform="translate(407.266176, 80.012866)"><g><path d="M 47.609375 0 L 45.109375 -31.375 L 44.796875 -31.375 L 33.953125 -0.328125 L 26.765625 -0.328125 L 15.921875 -31.375 L 15.59375 -31.375 L 13.09375 0 L 1.03125 0 L 5.78125 -52.9375 L 18.609375 -52.9375 L 30.359375 -22.390625 L 42.09375 -52.9375 L 54.9375 -52.9375 L 59.6875 0 Z M 47.609375 0 "></path></g></g></g></svg> 