<?xml version="1.0" encoding="UTF-8"?> <svg xmlns="http://www.w3.org/2000/svg" xmlns:xlink="http://www.w3.org/1999/xlink" width="650" zoomAndPan="magnify" viewBox="0 0 487.5 112.499997" height="150" preserveAspectRatio="xMidYMid meet" version="1.0"><defs><g><g id="id1"></g></g><clipPath id="id2"><path d="M 396.226562 24.417969 L 486.171875 24.417969 L 486.171875 76.738281 L 396.226562 76.738281 Z M 396.226562 24.417969 " clip-rule="nonzero"></path></clipPath><clipPath id="id3"><path d="M 427 60 L 440 60 L 440 76.738281 L 427 76.738281 Z M 427 60 " clip-rule="nonzero"></path></clipPath></defs><g clip-path="url(#id2)"><path fill="rgb(94.898987%, 94.898987%, 94.898987%)" d="M 396.226562 49.507812 L 486.660156 24.414062 L 458.472656 76.734375 L 432.488281 59.292969 L 486.527344 24.5 L 429.476562 58.707031 L 425.953125 76.292969 L 419.054688 56.863281 L 486.519531 24.496094 L 417.808594 55.539062 Z M 396.226562 49.507812 " fill-opacity="1" fill-rule="evenodd"></path></g><g clip-path="url(#id3)"><path fill="rgb(94.898987%, 94.898987%, 94.898987%)" d="M 427.710938 76.6875 L 439.335938 66.070312 L 431.863281 60.554688 Z M 427.710938 76.6875 " fill-opacity="1" fill-rule="evenodd"></path></g><g fill="rgb(100%, 100%, 100%)" fill-opacity="1"><g transform="translate(12.041361, 70.450085)"><g><path d="M 34.640625 0 L 23.3125 0 L 17.328125 -7.6875 L 11.328125 0 L 0 0 L 11.59375 -14.203125 L 1.640625 -27.171875 L 12.609375 -27.171875 L 17.328125 -20.875 L 22.03125 -27.171875 L 33 -27.171875 L 23.046875 -14.203125 Z M 34.640625 0 "></path></g></g></g><g fill="rgb(100%, 100%, 100%)" fill-opacity="1"><g transform="translate(46.684656, 70.450085)"><g><path d="M 26.4375 -9 C 27.945312 -9 29.414062 -9.226562 30.84375 -9.6875 C 32.28125 -10.144531 33.332031 -10.585938 34 -11.015625 L 35.015625 -11.703125 L 39.25 -3.234375 C 39.101562 -3.128906 38.90625 -2.988281 38.65625 -2.8125 C 38.414062 -2.632812 37.84375 -2.304688 36.9375 -1.828125 C 36.039062 -1.347656 35.078125 -0.929688 34.046875 -0.578125 C 33.023438 -0.222656 31.6875 0.09375 30.03125 0.375 C 28.375 0.65625 26.660156 0.796875 24.890625 0.796875 C 20.828125 0.796875 16.976562 -0.195312 13.34375 -2.1875 C 9.707031 -4.1875 6.773438 -6.929688 4.546875 -10.421875 C 2.328125 -13.921875 1.21875 -17.703125 1.21875 -21.765625 C 1.21875 -24.835938 1.867188 -27.785156 3.171875 -30.609375 C 4.484375 -33.441406 6.222656 -35.863281 8.390625 -37.875 C 10.566406 -39.882812 13.101562 -41.488281 16 -42.6875 C 18.894531 -43.894531 21.859375 -44.5 24.890625 -44.5 C 27.710938 -44.5 30.316406 -44.160156 32.703125 -43.484375 C 35.085938 -42.816406 36.773438 -42.144531 37.765625 -41.46875 L 39.25 -40.46875 L 35.015625 -32 C 34.765625 -32.207031 34.390625 -32.460938 33.890625 -32.765625 C 33.398438 -33.066406 32.410156 -33.460938 30.921875 -33.953125 C 29.441406 -34.441406 27.945312 -34.6875 26.4375 -34.6875 C 24.03125 -34.6875 21.875 -34.296875 19.96875 -33.515625 C 18.0625 -32.742188 16.550781 -31.722656 15.4375 -30.453125 C 14.320312 -29.179688 13.472656 -27.8125 12.890625 -26.34375 C 12.316406 -24.882812 12.03125 -23.394531 12.03125 -21.875 C 12.03125 -18.550781 13.273438 -15.570312 15.765625 -12.9375 C 18.253906 -10.3125 21.8125 -9 26.4375 -9 Z M 26.4375 -9 "></path></g></g></g><g fill="rgb(100%, 100%, 100%)" fill-opacity="1"><g transform="translate(86.572118, 70.450085)"><g><path d="M 25.375 -43.703125 L 43.015625 0 L 32.3125 0 L 29.078125 -8.734375 L 12.453125 -8.734375 L 9.21875 0 L -1.484375 0 L 16.15625 -43.703125 Z M 25.6875 -17.484375 L 20.8125 -30.1875 L 20.703125 -30.1875 L 15.84375 -17.484375 Z M 25.6875 -17.484375 "></path></g></g></g><g fill="rgb(100%, 100%, 100%)" fill-opacity="1"><g transform="translate(128.101693, 70.450085)"><g><path d="M 0.421875 -34.953125 L 0.421875 -43.703125 L 31.140625 -43.703125 L 31.140625 -34.953125 L 20.765625 -34.953125 L 20.765625 0 L 10.8125 0 L 10.8125 -34.953125 Z M 0.421875 -34.953125 "></path></g></g></g><g fill="rgb(100%, 100%, 100%)" fill-opacity="1"><g transform="translate(159.67265, 70.450085)"><g><path d="M 0.421875 -34.953125 L 0.421875 -43.703125 L 31.140625 -43.703125 L 31.140625 -34.953125 L 20.765625 -34.953125 L 20.765625 0 L 10.8125 0 L 10.8125 -34.953125 Z M 0.421875 -34.953125 "></path></g></g></g><g fill="rgb(100%, 100%, 100%)" fill-opacity="1"><g transform="translate(191.243607, 70.450085)"><g><path d="M 44.0625 0 L 31.203125 0 L 20.875 -14.890625 L 10.546875 0 L -1.796875 0 L 14.71875 -23.515625 L 0.953125 -43.703125 L 12.8125 -43.703125 L 20.875 -31.78125 L 28.921875 -43.703125 L 41.3125 -43.703125 L 27.015625 -23.515625 Z M 44.0625 0 "></path></g></g></g><g fill="rgb(100%, 100%, 100%)" fill-opacity="1"><g transform="translate(233.514778, 70.450085)"><g><path d="M 9.21875 -11.328125 C 10.914062 -11.328125 12.351562 -10.734375 13.53125 -9.546875 C 14.71875 -8.367188 15.3125 -6.9375 15.3125 -5.25 C 15.3125 -3.582031 14.71875 -2.15625 13.53125 -0.96875 C 12.351562 0.207031 10.914062 0.796875 9.21875 0.796875 C 7.5625 0.796875 6.140625 0.207031 4.953125 -0.96875 C 3.765625 -2.15625 3.171875 -3.582031 3.171875 -5.25 C 3.171875 -6.9375 3.765625 -8.367188 4.953125 -9.546875 C 6.140625 -10.734375 7.5625 -11.328125 9.21875 -11.328125 Z M 9.21875 -11.328125 "></path></g></g></g><g fill="rgb(100%, 100%, 100%)" fill-opacity="1"><g transform="translate(252.001804, 70.450085)"><g><path d="M 26.4375 -9 C 27.945312 -9 29.414062 -9.226562 30.84375 -9.6875 C 32.28125 -10.144531 33.332031 -10.585938 34 -11.015625 L 35.015625 -11.703125 L 39.25 -3.234375 C 39.101562 -3.128906 38.90625 -2.988281 38.65625 -2.8125 C 38.414062 -2.632812 37.84375 -2.304688 36.9375 -1.828125 C 36.039062 -1.347656 35.078125 -0.929688 34.046875 -0.578125 C 33.023438 -0.222656 31.6875 0.09375 30.03125 0.375 C 28.375 0.65625 26.660156 0.796875 24.890625 0.796875 C 20.828125 0.796875 16.976562 -0.195312 13.34375 -2.1875 C 9.707031 -4.1875 6.773438 -6.929688 4.546875 -10.421875 C 2.328125 -13.921875 1.21875 -17.703125 1.21875 -21.765625 C 1.21875 -24.835938 1.867188 -27.785156 3.171875 -30.609375 C 4.484375 -33.441406 6.222656 -35.863281 8.390625 -37.875 C 10.566406 -39.882812 13.101562 -41.488281 16 -42.6875 C 18.894531 -43.894531 21.859375 -44.5 24.890625 -44.5 C 27.710938 -44.5 30.316406 -44.160156 32.703125 -43.484375 C 35.085938 -42.816406 36.773438 -42.144531 37.765625 -41.46875 L 39.25 -40.46875 L 35.015625 -32 C 34.765625 -32.207031 34.390625 -32.460938 33.890625 -32.765625 C 33.398438 -33.066406 32.410156 -33.460938 30.921875 -33.953125 C 29.441406 -34.441406 27.945312 -34.6875 26.4375 -34.6875 C 24.03125 -34.6875 21.875 -34.296875 19.96875 -33.515625 C 18.0625 -32.742188 16.550781 -31.722656 15.4375 -30.453125 C 14.320312 -29.179688 13.472656 -27.8125 12.890625 -26.34375 C 12.316406 -24.882812 12.03125 -23.394531 12.03125 -21.875 C 12.03125 -18.550781 13.273438 -15.570312 15.765625 -12.9375 C 18.253906 -10.3125 21.8125 -9 26.4375 -9 Z M 26.4375 -9 "></path></g></g></g><g fill="rgb(100%, 100%, 100%)" fill-opacity="1"><g transform="translate(291.889273, 70.450085)"><g><path d="M 1.21875 -21.875 C 1.21875 -28.195312 3.367188 -33.546875 7.671875 -37.921875 C 11.984375 -42.304688 17.175781 -44.5 23.25 -44.5 C 29.363281 -44.5 34.554688 -42.316406 38.828125 -37.953125 C 43.097656 -33.585938 45.234375 -28.226562 45.234375 -21.875 C 45.234375 -15.476562 43.128906 -10.097656 38.921875 -5.734375 C 34.722656 -1.378906 29.5 0.796875 23.25 0.796875 C 16.863281 0.796875 11.59375 -1.363281 7.4375 -5.6875 C 3.289062 -10.019531 1.21875 -15.414062 1.21875 -21.875 Z M 11.96875 -21.875 C 11.96875 -19.582031 12.320312 -17.488281 13.03125 -15.59375 C 13.738281 -13.707031 14.972656 -12.109375 16.734375 -10.796875 C 18.503906 -9.492188 20.675781 -8.84375 23.25 -8.84375 C 26.957031 -8.84375 29.753906 -10.113281 31.640625 -12.65625 C 33.535156 -15.195312 34.484375 -18.269531 34.484375 -21.875 C 34.484375 -25.4375 33.519531 -28.5 31.59375 -31.0625 C 29.664062 -33.625 26.882812 -34.90625 23.25 -34.90625 C 19.644531 -34.90625 16.863281 -33.625 14.90625 -31.0625 C 12.945312 -28.5 11.96875 -25.4375 11.96875 -21.875 Z M 11.96875 -21.875 "></path></g></g></g><g fill="rgb(100%, 100%, 100%)" fill-opacity="1"><g transform="translate(338.345197, 70.450085)"><g><path d="M 39.296875 0 L 37.234375 -25.90625 L 36.96875 -25.90625 L 28.015625 -0.265625 L 22.09375 -0.265625 L 13.140625 -25.90625 L 12.875 -25.90625 L 10.8125 0 L 0.84375 0 L 4.765625 -43.703125 L 15.359375 -43.703125 L 25.046875 -18.484375 L 34.75 -43.703125 L 45.34375 -43.703125 L 49.265625 0 Z M 39.296875 0 "></path></g></g></g></svg> 