<?xml version="1.0" encoding="UTF-8"?> <svg xmlns="http://www.w3.org/2000/svg" xmlns:xlink="http://www.w3.org/1999/xlink" width="500" zoomAndPan="magnify" viewBox="0 0 375 374.999991" height="500" preserveAspectRatio="xMidYMid meet" version="1.0"><defs><clipPath id="id1"><path d="M 0 59.550781 L 375 59.550781 L 375 323 L 0 323 Z M 0 59.550781 " clip-rule="nonzero"></path></clipPath></defs><g clip-path="url(#id1)"><path fill="rgb(100%, 0%, 0%)" d="M 366.8125 100.96875 C 366.277344 98.988281 365.613281 97.050781 364.824219 95.15625 C 364.035156 93.261719 363.125 91.425781 362.097656 89.652344 C 361.070312 87.875 359.929688 86.175781 358.679688 84.546875 C 357.429688 82.921875 356.078125 81.378906 354.628906 79.929688 C 353.179688 78.480469 351.640625 77.128906 350.011719 75.878906 C 348.386719 74.625 346.6875 73.488281 344.910156 72.457031 C 343.136719 71.429688 341.300781 70.519531 339.40625 69.730469 C 337.515625 68.941406 335.578125 68.277344 333.597656 67.738281 C 304.476562 59.785156 187.265625 59.785156 187.265625 59.785156 C 187.265625 59.785156 70.050781 60.019531 40.921875 67.972656 C 38.941406 68.511719 37.003906 69.175781 35.113281 69.964844 C 33.21875 70.753906 31.382812 71.664062 29.609375 72.691406 C 27.832031 73.722656 26.132812 74.859375 24.507812 76.113281 C 22.878906 77.363281 21.339844 78.714844 19.890625 80.164062 C 18.441406 81.613281 17.089844 83.15625 15.839844 84.78125 C 14.589844 86.410156 13.449219 88.109375 12.421875 89.886719 C 11.394531 91.660156 10.484375 93.496094 9.695312 95.390625 C 8.90625 97.285156 8.242188 99.222656 7.703125 101.203125 C 0 130.339844 0 191.257812 0 191.257812 C 0 191.257812 0 252.175781 7.945312 281.546875 C 8.480469 283.527344 9.144531 285.464844 9.933594 287.359375 C 10.722656 289.253906 11.632812 291.089844 12.660156 292.863281 C 13.691406 294.640625 14.828125 296.34375 16.078125 297.96875 C 17.328125 299.597656 18.679688 301.136719 20.128906 302.585938 C 21.582031 304.039062 23.121094 305.390625 24.746094 306.640625 C 26.375 307.890625 28.074219 309.03125 29.847656 310.058594 C 31.625 311.085938 33.457031 311.996094 35.351562 312.785156 C 37.246094 313.574219 39.183594 314.238281 41.164062 314.777344 C 70.285156 322.730469 187.5 322.730469 187.5 322.730469 C 187.5 322.730469 304.714844 322.730469 333.84375 314.78125 C 335.824219 314.246094 337.761719 313.582031 339.652344 312.792969 C 341.546875 312.003906 343.382812 311.09375 345.15625 310.0625 C 346.933594 309.035156 348.632812 307.894531 350.257812 306.644531 C 351.886719 305.394531 353.425781 304.042969 354.875 302.59375 C 356.324219 301.140625 357.675781 299.601562 358.925781 297.976562 C 360.175781 296.347656 361.316406 294.648438 362.34375 292.871094 C 363.371094 291.09375 364.28125 289.261719 365.070312 287.367188 C 365.859375 285.472656 366.523438 283.535156 367.058594 281.554688 C 375 252.417969 375 191.257812 375 191.257812 C 375 191.257812 374.765625 130.339844 366.8125 100.96875 Z M 366.8125 100.96875 " fill-opacity="1" fill-rule="nonzero"></path></g><path fill="rgb(100%, 100%, 100%)" d="M 149.953125 247.597656 L 247.1875 191.257812 L 149.945312 134.917969 Z M 149.953125 247.597656 " fill-opacity="1" fill-rule="nonzero"></path></svg> 